<svg width="60" height="56" viewBox="0 0 60 56" fill="none" xmlns="http://www.w3.org/2000/svg">
<ellipse cx="30" cy="28" rx="30" ry="28" fill="#FD2F2F"/>
<mask id="path-2-outside-1_21_12" maskUnits="userSpaceOnUse" x="19" y="11" width="22" height="32" fill="black">
<rect fill="white" x="19" y="11" width="22" height="32"/>
<path d="M22.12 19.92C22.12 17.3333 22.7733 15.4667 24.08 14.32C25.3867 13.1733 27.5067 12.6 30.44 12.6C32.4933 12.6 34.1467 13.1333 35.4 14.2C36.6533 15.2667 37.56 16.8933 38.12 19.08L34.4 21.88H32.44L36.76 18.64C36.2 16.8533 35.3867 15.6 34.32 14.88C33.28 14.16 31.9867 13.8 30.44 13.8C29.3733 13.8 28.4667 13.8667 27.72 14C27 14.1333 26.2667 14.4 25.52 14.8C24.8 15.1733 24.2533 15.7867 23.88 16.64C23.5067 17.4933 23.32 18.5867 23.32 19.92C23.32 21.0933 23.8533 22.1333 24.92 23.04C26.0133 23.9467 27.3333 24.72 28.88 25.36C30.4267 26 31.9733 26.6533 33.52 27.32C35.0933 27.9867 36.4133 28.84 37.48 29.88C38.5733 30.92 39.12 32.12 39.12 33.48C39.12 36.1467 38.4533 38.1333 37.12 39.44C35.8133 40.7467 33.56 41.4 30.36 41.4C27.7467 41.4 25.6933 40.88 24.2 39.84C22.7067 38.7733 21.68 37.1333 21.12 34.92L22.24 34.44C22.7733 36.6 23.68 38.1067 24.96 38.96C26.2667 39.7867 28.0667 40.2 30.36 40.2C32.92 40.2 34.8133 39.7067 36.04 38.72C37.2933 37.7333 37.92 35.9867 37.92 33.48C37.92 32.3067 37.3733 31.2667 36.28 30.36C35.2133 29.4533 33.8933 28.68 32.32 28.04C30.7733 27.4 29.2267 26.7467 27.68 26.08C26.1333 25.4133 24.8133 24.56 23.72 23.52C22.6533 22.48 22.12 21.28 22.12 19.92Z"/>
</mask>
<path d="M22.12 19.92C22.12 17.3333 22.7733 15.4667 24.08 14.32C25.3867 13.1733 27.5067 12.6 30.44 12.6C32.4933 12.6 34.1467 13.1333 35.4 14.2C36.6533 15.2667 37.56 16.8933 38.12 19.08L34.4 21.88H32.44L36.76 18.64C36.2 16.8533 35.3867 15.6 34.32 14.88C33.28 14.16 31.9867 13.8 30.44 13.8C29.3733 13.8 28.4667 13.8667 27.72 14C27 14.1333 26.2667 14.4 25.52 14.8C24.8 15.1733 24.2533 15.7867 23.88 16.64C23.5067 17.4933 23.32 18.5867 23.32 19.92C23.32 21.0933 23.8533 22.1333 24.92 23.04C26.0133 23.9467 27.3333 24.72 28.88 25.36C30.4267 26 31.9733 26.6533 33.52 27.32C35.0933 27.9867 36.4133 28.84 37.48 29.88C38.5733 30.92 39.12 32.12 39.12 33.48C39.12 36.1467 38.4533 38.1333 37.12 39.44C35.8133 40.7467 33.56 41.4 30.36 41.4C27.7467 41.4 25.6933 40.88 24.2 39.84C22.7067 38.7733 21.68 37.1333 21.12 34.92L22.24 34.44C22.7733 36.6 23.68 38.1067 24.96 38.96C26.2667 39.7867 28.0667 40.2 30.36 40.2C32.92 40.2 34.8133 39.7067 36.04 38.72C37.2933 37.7333 37.92 35.9867 37.92 33.48C37.92 32.3067 37.3733 31.2667 36.28 30.36C35.2133 29.4533 33.8933 28.68 32.32 28.04C30.7733 27.4 29.2267 26.7467 27.68 26.08C26.1333 25.4133 24.8133 24.56 23.72 23.52C22.6533 22.48 22.12 21.28 22.12 19.92Z" fill="black"/>
<path d="M24.08 14.32L23.2885 13.418L23.2885 13.418L24.08 14.32ZM35.4 14.2L34.6223 15.1138L34.6223 15.1138L35.4 14.2ZM38.12 19.08L38.8416 20.0388L39.481 19.5575L39.2825 18.7823L38.12 19.08ZM34.4 21.88V23.08H34.8011L35.1216 22.8388L34.4 21.88ZM32.44 21.88L31.72 20.92L28.84 23.08H32.44V21.88ZM36.76 18.64L37.48 19.6L38.1589 19.0908L37.9051 18.2811L36.76 18.64ZM34.32 14.88L33.6369 15.8666L33.6428 15.8707L33.6486 15.8746L34.32 14.88ZM27.72 14L27.509 12.8187L27.5015 12.8201L27.72 14ZM25.52 14.8L26.0724 15.8653L26.0795 15.8616L26.0867 15.8578L25.52 14.8ZM23.88 16.64L24.9794 17.121L24.9794 17.121L23.88 16.64ZM24.92 23.04L24.1428 23.9543L24.1484 23.9591L24.154 23.9637L24.92 23.04ZM28.88 25.36L29.3388 24.2512L29.3388 24.2512L28.88 25.36ZM33.52 27.32L33.045 28.422L33.0518 28.4249L33.52 27.32ZM37.48 29.88L36.6423 30.7392L36.6476 30.7444L36.6529 30.7495L37.48 29.88ZM37.12 39.44L36.28 38.5829L36.2715 38.5915L37.12 39.44ZM24.2 39.84L23.5025 40.8165L23.5083 40.8206L23.5142 40.8247L24.2 39.84ZM21.12 34.92L20.6473 33.817L19.7053 34.2208L19.9567 35.2143L21.12 34.92ZM22.24 34.44L23.405 34.1523L23.0662 32.7803L21.7673 33.337L22.24 34.44ZM24.96 38.96L24.2944 39.9585L24.3063 39.9664L24.3184 39.9741L24.96 38.96ZM36.04 38.72L35.2977 37.7771L35.2879 37.7849L36.04 38.72ZM36.28 30.36L35.5028 31.2743L35.5084 31.2791L35.514 31.2837L36.28 30.36ZM32.32 28.04L31.8612 29.1488L31.8678 29.1516L32.32 28.04ZM23.72 23.52L22.8823 24.3792L22.8876 24.3844L22.8929 24.3895L23.72 23.52ZM22.12 19.92H23.32C23.32 17.5082 23.9298 16.0483 24.8715 15.2219L24.08 14.32L23.2885 13.418C21.6168 14.885 20.92 17.1585 20.92 19.92H22.12ZM24.08 14.32L24.8715 15.2219C25.8518 14.3617 27.6131 13.8 30.44 13.8V12.6V11.4C27.4002 11.4 24.9216 11.985 23.2885 13.418L24.08 14.32ZM30.44 12.6V13.8C32.2812 13.8 33.6357 14.2742 34.6223 15.1138L35.4 14.2L36.1777 13.2862C34.6577 11.9925 32.7055 11.4 30.44 11.4V12.6ZM35.4 14.2L34.6223 15.1138C35.6282 15.97 36.4367 17.3441 36.9575 19.3777L38.12 19.08L39.2825 18.7823C38.6833 16.4426 37.6784 14.5633 36.1777 13.2862L35.4 14.2ZM38.12 19.08L37.3984 18.1212L33.6784 20.9212L34.4 21.88L35.1216 22.8388L38.8416 20.0388L38.12 19.08ZM34.4 21.88V20.68H32.44V21.88V23.08H34.4V21.88ZM32.44 21.88L33.16 22.84L37.48 19.6L36.76 18.64L36.04 17.68L31.72 20.92L32.44 21.88ZM36.76 18.64L37.9051 18.2811C37.2996 16.3494 36.3659 14.8132 34.9914 13.8854L34.32 14.88L33.6486 15.8746C34.4074 16.3868 35.1004 17.3573 35.6149 18.9989L36.76 18.64ZM34.32 14.88L35.0031 13.8934C33.7214 13.0061 32.1757 12.6 30.44 12.6V13.8V15C31.7977 15 32.8386 15.3139 33.6369 15.8666L34.32 14.88ZM30.44 13.8V12.6C29.3287 12.6 28.347 12.6691 27.5091 12.8187L27.72 14L27.9309 15.1813C28.5863 15.0643 29.418 15 30.44 15V13.8ZM27.72 14L27.5015 12.8201C26.6425 12.9791 25.7923 13.2928 24.9533 13.7422L25.52 14.8L26.0867 15.8578C26.741 15.5072 27.3575 15.2875 27.9385 15.1799L27.72 14ZM25.52 14.8L24.9676 13.7347C23.9682 14.2529 23.2468 15.0934 22.7806 16.159L23.88 16.64L24.9794 17.121C25.2598 16.48 25.6318 16.0938 26.0724 15.8653L25.52 14.8ZM23.88 16.64L22.7806 16.159C22.3188 17.2146 22.12 18.4871 22.12 19.92H23.32H24.52C24.52 18.6862 24.6946 17.772 24.9794 17.121L23.88 16.64ZM23.32 19.92H22.12C22.12 21.5139 22.865 22.8682 24.1428 23.9543L24.92 23.04L25.6972 22.1257C24.8417 21.3985 24.52 20.6727 24.52 19.92H23.32ZM24.92 23.04L24.154 23.9637C25.3547 24.9594 26.7827 25.7908 28.4212 26.4688L28.88 25.36L29.3388 24.2512C27.884 23.6492 26.672 22.9339 25.686 22.1163L24.92 23.04ZM28.88 25.36L28.4212 26.4688C29.9624 27.1066 31.5037 27.7576 33.045 28.422L33.52 27.32L33.995 26.218C32.443 25.549 30.8909 24.8934 29.3388 24.2512L28.88 25.36ZM33.52 27.32L33.0518 28.4249C34.5077 29.0418 35.6969 29.8175 36.6423 30.7392L37.48 29.88L38.3177 29.0208C37.1297 27.8625 35.6789 26.9315 33.9882 26.2151L33.52 27.32ZM37.48 29.88L36.6529 30.7495C37.537 31.5904 37.92 32.4864 37.92 33.48H39.12H40.32C40.32 31.7536 39.6097 30.2496 38.3071 29.0105L37.48 29.88ZM39.12 33.48H37.92C37.92 35.9638 37.2996 37.5839 36.2801 38.5829L37.12 39.44L37.9599 40.2971C39.6071 38.6828 40.32 36.3295 40.32 33.48H39.12ZM37.12 39.44L36.2715 38.5915C35.3069 39.5561 33.4582 40.2 30.36 40.2V41.4V42.6C33.6618 42.6 36.3198 41.9372 37.9685 40.2885L37.12 39.44ZM30.36 41.4V40.2C27.8894 40.2 26.1076 39.7062 24.8858 38.8553L24.2 39.84L23.5142 40.8247C25.2791 42.0538 27.6039 42.6 30.36 42.6V41.4ZM24.2 39.84L24.8975 38.8635C23.6875 37.9993 22.7912 36.633 22.2833 34.6257L21.12 34.92L19.9567 35.2143C20.5688 37.6336 21.7258 39.5474 23.5025 40.8165L24.2 39.84ZM21.12 34.92L21.5927 36.023L22.7127 35.543L22.24 34.44L21.7673 33.337L20.6473 33.817L21.12 34.92ZM22.24 34.44L21.075 34.7277C21.6485 37.0502 22.6733 38.8777 24.2944 39.9585L24.96 38.96L25.6256 37.9615C24.6867 37.3356 23.8982 36.1498 23.405 34.1523L22.24 34.44ZM24.96 38.96L24.3184 39.9741C25.8886 40.9675 27.9424 41.4 30.36 41.4V40.2V39C28.1909 39 26.6447 38.6059 25.6016 37.9459L24.96 38.96ZM30.36 40.2V41.4C33.0347 41.4 35.2548 40.8916 36.7921 39.6551L36.04 38.72L35.2879 37.7849C34.3719 38.5217 32.8053 39 30.36 39V40.2ZM36.04 38.72L36.7823 39.6629C38.4579 38.3438 39.12 36.1426 39.12 33.48H37.92H36.72C36.72 35.8307 36.1287 37.1229 35.2977 37.7771L36.04 38.72ZM37.92 33.48H39.12C39.12 31.8743 38.3505 30.5181 37.046 29.4363L36.28 30.36L35.514 31.2837C36.3961 32.0152 36.72 32.7391 36.72 33.48H37.92ZM36.28 30.36L37.0572 29.4457C35.8752 28.441 34.4393 27.6066 32.7722 26.9284L32.32 28.04L31.8678 29.1516C33.3474 29.7534 34.5515 30.4657 35.5028 31.2743L36.28 30.36ZM32.32 28.04L32.7788 26.9312C31.2376 26.2934 29.6963 25.6424 28.155 24.978L27.68 26.08L27.205 27.182C28.757 27.851 30.3091 28.5066 31.8612 29.1488L32.32 28.04ZM27.68 26.08L28.155 24.978C26.7235 24.361 25.5265 23.5822 24.5471 22.6505L23.72 23.52L22.8929 24.3895C24.1002 25.5378 25.5432 26.4657 27.205 27.182L27.68 26.08ZM23.72 23.52L24.5577 22.6608C23.6983 21.8229 23.32 20.9239 23.32 19.92H22.12H20.92C20.92 21.6361 21.6084 23.1371 22.8823 24.3792L23.72 23.52Z" fill="black" mask="url(#path-2-outside-1_21_12)"/>
<circle cx="30" cy="17" r="2" fill="white"/>
</svg>
