<svg width="273" height="65" viewBox="0 0 273 65" fill="none" xmlns="http://www.w3.org/2000/svg">
<mask id="path-1-outside-1_2_2" maskUnits="userSpaceOnUse" x="65" y="16" width="186" height="27" fill="black">
<rect fill="white" x="65" y="16" width="186" height="27"/>
<path d="M67.496 24.136C67.496 22.0667 68.0187 20.5733 69.064 19.656C70.1093 18.7387 71.8053 18.28 74.152 18.28C75.7947 18.28 77.1173 18.7067 78.12 19.56C79.1227 20.4133 79.848 21.7147 80.296 23.464L77.32 25.704H75.752L79.208 23.112C78.76 21.6827 78.1093 20.68 77.256 20.104C76.424 19.528 75.3893 19.24 74.152 19.24C73.2987 19.24 72.5733 19.2933 71.976 19.4C71.4 19.5067 70.8133 19.72 70.216 20.04C69.64 20.3387 69.2027 20.8293 68.904 21.512C68.6053 22.1947 68.456 23.0693 68.456 24.136C68.456 25.0747 68.8827 25.9067 69.736 26.632C70.6107 27.3573 71.6667 27.976 72.904 28.488C74.1413 29 75.3787 29.5227 76.616 30.056C77.8747 30.5893 78.9307 31.272 79.784 32.104C80.6587 32.936 81.096 33.896 81.096 34.984C81.096 37.1173 80.5627 38.7067 79.496 39.752C78.4507 40.7973 76.648 41.32 74.088 41.32C71.9973 41.32 70.3547 40.904 69.16 40.072C67.9653 39.2187 67.144 37.9067 66.696 36.136L67.592 35.752C68.0187 37.48 68.744 38.6853 69.768 39.368C70.8133 40.0293 72.2533 40.36 74.088 40.36C76.136 40.36 77.6507 39.9653 78.632 39.176C79.6347 38.3867 80.136 36.9893 80.136 34.984C80.136 34.0453 79.6987 33.2133 78.824 32.488C77.9707 31.7627 76.9147 31.144 75.656 30.632C74.4187 30.12 73.1813 29.5973 71.944 29.064C70.7067 28.5307 69.6507 27.848 68.776 27.016C67.9227 26.184 67.496 25.224 67.496 24.136ZM99.4175 18.6V19.56H91.8975V41H90.9375V19.56H83.4175V18.6H99.4175ZM103.65 40.04H115.426L108.642 21.384L101.506 41H100.482L108.642 18.568L116.802 41H103.65V40.04ZM123.039 40.04H131.871L127.999 29.416L129.791 28.392C131.263 27.5813 131.999 26.2907 131.999 24.52C131.999 21.2133 129.482 19.56 124.447 19.56H121.503V41H120.543V18.6H124.447C127.263 18.6 129.386 19.1227 130.815 20.168C132.244 21.192 132.959 22.6427 132.959 24.52C132.959 26.6533 132.063 28.2213 130.271 29.224L129.183 29.832L133.247 41H123.039V40.04ZM151.449 18.6V19.56H143.929V41H142.969V19.56H135.449V18.6H151.449ZM178.431 36.904C177.855 38.312 177.044 39.4 175.999 40.168C174.954 40.936 173.386 41.32 171.295 41.32C168.671 41.32 166.772 40.52 165.599 38.92C164.426 37.2987 163.839 34.7813 163.839 31.368V28.232C163.839 24.8187 164.426 22.312 165.599 20.712C166.772 19.0907 168.671 18.28 171.295 18.28C173.386 18.28 174.954 18.664 175.999 19.432C177.044 20.2 177.855 21.288 178.431 22.696L177.567 23.112C177.076 21.8747 176.383 20.9253 175.487 20.264C174.591 19.5813 173.194 19.24 171.295 19.24C170.25 19.24 169.354 19.3787 168.607 19.656C167.86 19.912 167.188 20.36 166.591 21C165.994 21.64 165.546 22.568 165.247 23.784C164.948 24.9787 164.799 26.4613 164.799 28.232V31.368C164.799 33.1387 164.948 34.632 165.247 35.848C165.546 37.0427 165.994 37.96 166.591 38.6C167.188 39.24 167.86 39.6987 168.607 39.976C169.354 40.232 170.25 40.36 171.295 40.36C173.194 40.36 174.591 40.0293 175.487 39.368C176.383 38.6853 177.076 37.7253 177.567 36.488L178.431 36.904ZM196.7 40.04V41H183.324V18.6H184.284V40.04H196.7ZM201.316 41H200.356V18.6H201.316V41ZM210.133 40.04H220.053L208.597 20.232V41H207.637V18.6H208.757L220.725 39.304V18.6H221.685V41H210.133V40.04ZM228.972 41H228.012V18.6H228.972V41ZM249.181 36.904C248.605 38.312 247.794 39.4 246.749 40.168C245.704 40.936 244.136 41.32 242.045 41.32C239.421 41.32 237.522 40.52 236.349 38.92C235.176 37.2987 234.589 34.7813 234.589 31.368V28.232C234.589 24.8187 235.176 22.312 236.349 20.712C237.522 19.0907 239.421 18.28 242.045 18.28C244.136 18.28 245.704 18.664 246.749 19.432C247.794 20.2 248.605 21.288 249.181 22.696L248.317 23.112C247.826 21.8747 247.133 20.9253 246.237 20.264C245.341 19.5813 243.944 19.24 242.045 19.24C241 19.24 240.104 19.3787 239.357 19.656C238.61 19.912 237.938 20.36 237.341 21C236.744 21.64 236.296 22.568 235.997 23.784C235.698 24.9787 235.549 26.4613 235.549 28.232V31.368C235.549 33.1387 235.698 34.632 235.997 35.848C236.296 37.0427 236.744 37.96 237.341 38.6C237.938 39.24 238.61 39.6987 239.357 39.976C240.104 40.232 241 40.36 242.045 40.36C243.944 40.36 245.341 40.0293 246.237 39.368C247.133 38.6853 247.826 37.7253 248.317 36.488L249.181 36.904Z"/>
</mask>
<path d="M67.496 24.136C67.496 22.0667 68.0187 20.5733 69.064 19.656C70.1093 18.7387 71.8053 18.28 74.152 18.28C75.7947 18.28 77.1173 18.7067 78.12 19.56C79.1227 20.4133 79.848 21.7147 80.296 23.464L77.32 25.704H75.752L79.208 23.112C78.76 21.6827 78.1093 20.68 77.256 20.104C76.424 19.528 75.3893 19.24 74.152 19.24C73.2987 19.24 72.5733 19.2933 71.976 19.4C71.4 19.5067 70.8133 19.72 70.216 20.04C69.64 20.3387 69.2027 20.8293 68.904 21.512C68.6053 22.1947 68.456 23.0693 68.456 24.136C68.456 25.0747 68.8827 25.9067 69.736 26.632C70.6107 27.3573 71.6667 27.976 72.904 28.488C74.1413 29 75.3787 29.5227 76.616 30.056C77.8747 30.5893 78.9307 31.272 79.784 32.104C80.6587 32.936 81.096 33.896 81.096 34.984C81.096 37.1173 80.5627 38.7067 79.496 39.752C78.4507 40.7973 76.648 41.32 74.088 41.32C71.9973 41.32 70.3547 40.904 69.16 40.072C67.9653 39.2187 67.144 37.9067 66.696 36.136L67.592 35.752C68.0187 37.48 68.744 38.6853 69.768 39.368C70.8133 40.0293 72.2533 40.36 74.088 40.36C76.136 40.36 77.6507 39.9653 78.632 39.176C79.6347 38.3867 80.136 36.9893 80.136 34.984C80.136 34.0453 79.6987 33.2133 78.824 32.488C77.9707 31.7627 76.9147 31.144 75.656 30.632C74.4187 30.12 73.1813 29.5973 71.944 29.064C70.7067 28.5307 69.6507 27.848 68.776 27.016C67.9227 26.184 67.496 25.224 67.496 24.136ZM99.4175 18.6V19.56H91.8975V41H90.9375V19.56H83.4175V18.6H99.4175ZM103.65 40.04H115.426L108.642 21.384L101.506 41H100.482L108.642 18.568L116.802 41H103.65V40.04ZM123.039 40.04H131.871L127.999 29.416L129.791 28.392C131.263 27.5813 131.999 26.2907 131.999 24.52C131.999 21.2133 129.482 19.56 124.447 19.56H121.503V41H120.543V18.6H124.447C127.263 18.6 129.386 19.1227 130.815 20.168C132.244 21.192 132.959 22.6427 132.959 24.52C132.959 26.6533 132.063 28.2213 130.271 29.224L129.183 29.832L133.247 41H123.039V40.04ZM151.449 18.6V19.56H143.929V41H142.969V19.56H135.449V18.6H151.449ZM178.431 36.904C177.855 38.312 177.044 39.4 175.999 40.168C174.954 40.936 173.386 41.32 171.295 41.32C168.671 41.32 166.772 40.52 165.599 38.92C164.426 37.2987 163.839 34.7813 163.839 31.368V28.232C163.839 24.8187 164.426 22.312 165.599 20.712C166.772 19.0907 168.671 18.28 171.295 18.28C173.386 18.28 174.954 18.664 175.999 19.432C177.044 20.2 177.855 21.288 178.431 22.696L177.567 23.112C177.076 21.8747 176.383 20.9253 175.487 20.264C174.591 19.5813 173.194 19.24 171.295 19.24C170.25 19.24 169.354 19.3787 168.607 19.656C167.86 19.912 167.188 20.36 166.591 21C165.994 21.64 165.546 22.568 165.247 23.784C164.948 24.9787 164.799 26.4613 164.799 28.232V31.368C164.799 33.1387 164.948 34.632 165.247 35.848C165.546 37.0427 165.994 37.96 166.591 38.6C167.188 39.24 167.86 39.6987 168.607 39.976C169.354 40.232 170.25 40.36 171.295 40.36C173.194 40.36 174.591 40.0293 175.487 39.368C176.383 38.6853 177.076 37.7253 177.567 36.488L178.431 36.904ZM196.7 40.04V41H183.324V18.6H184.284V40.04H196.7ZM201.316 41H200.356V18.6H201.316V41ZM210.133 40.04H220.053L208.597 20.232V41H207.637V18.6H208.757L220.725 39.304V18.6H221.685V41H210.133V40.04ZM228.972 41H228.012V18.6H228.972V41ZM249.181 36.904C248.605 38.312 247.794 39.4 246.749 40.168C245.704 40.936 244.136 41.32 242.045 41.32C239.421 41.32 237.522 40.52 236.349 38.92C235.176 37.2987 234.589 34.7813 234.589 31.368V28.232C234.589 24.8187 235.176 22.312 236.349 20.712C237.522 19.0907 239.421 18.28 242.045 18.28C244.136 18.28 245.704 18.664 246.749 19.432C247.794 20.2 248.605 21.288 249.181 22.696L248.317 23.112C247.826 21.8747 247.133 20.9253 246.237 20.264C245.341 19.5813 243.944 19.24 242.045 19.24C241 19.24 240.104 19.3787 239.357 19.656C238.61 19.912 237.938 20.36 237.341 21C236.744 21.64 236.296 22.568 235.997 23.784C235.698 24.9787 235.549 26.4613 235.549 28.232V31.368C235.549 33.1387 235.698 34.632 235.997 35.848C236.296 37.0427 236.744 37.96 237.341 38.6C237.938 39.24 238.61 39.6987 239.357 39.976C240.104 40.232 241 40.36 242.045 40.36C243.944 40.36 245.341 40.0293 246.237 39.368C247.133 38.6853 247.826 37.7253 248.317 36.488L249.181 36.904Z" fill="#FCF2F2"/>
<path d="M69.064 19.656L68.6023 19.1299L68.6023 19.1299L69.064 19.656ZM78.12 19.56L77.6663 20.0931V20.0931L78.12 19.56ZM80.296 23.464L80.717 24.0233L81.0899 23.7425L80.9741 23.2903L80.296 23.464ZM77.32 25.704V26.404H77.554L77.741 26.2633L77.32 25.704ZM75.752 25.704L75.332 25.144L73.652 26.404H75.752V25.704ZM79.208 23.112L79.628 23.672L80.024 23.375L79.876 22.9026L79.208 23.112ZM77.256 20.104L76.8575 20.6796L76.8644 20.6842L77.256 20.104ZM71.976 19.4L71.8529 18.7109L71.8485 18.7117L71.976 19.4ZM70.216 20.04L70.5383 20.6615L70.5466 20.657L70.216 20.04ZM68.904 21.512L69.5453 21.7926L68.904 21.512ZM69.736 26.632L69.2826 27.1654L69.2892 27.1708L69.736 26.632ZM72.904 28.488L73.1716 27.8412H73.1716L72.904 28.488ZM76.616 30.056L76.3389 30.6988L76.3429 30.7005L76.616 30.056ZM79.784 32.104L79.2953 32.6052L79.3016 32.6112L79.784 32.104ZM79.496 39.752L79.006 39.252L79.001 39.257L79.496 39.752ZM69.16 40.072L68.7531 40.6417L68.76 40.6464L69.16 40.072ZM66.696 36.136L66.4203 35.4926L65.8707 35.7281L66.0174 36.3077L66.696 36.136ZM67.592 35.752L68.2716 35.5842L68.074 34.7839L67.3163 35.1086L67.592 35.752ZM69.768 39.368L69.3797 39.9504L69.3867 39.9551L69.3938 39.9596L69.768 39.368ZM78.632 39.176L78.199 38.626L78.1933 38.6306L78.632 39.176ZM78.824 32.488L78.3706 33.0214L78.3772 33.0268L78.824 32.488ZM75.656 30.632L75.3883 31.2788L75.3922 31.2804L75.656 30.632ZM68.776 27.016L68.2873 27.5172L68.2936 27.5232L68.776 27.016ZM67.496 24.136H68.196C68.196 22.1686 68.6933 20.9126 69.5257 20.1821L69.064 19.656L68.6023 19.1299C67.344 20.234 66.796 21.9647 66.796 24.136H67.496ZM69.064 19.656L69.5257 20.1821C70.3806 19.4319 71.8674 18.98 74.152 18.98V18.28V17.58C71.7432 17.58 69.838 18.0454 68.6023 19.1299L69.064 19.656ZM74.152 18.28V18.98C75.6709 18.98 76.8192 19.3722 77.6663 20.0931L78.12 19.56L78.5737 19.0269C77.4154 18.0412 75.9184 17.58 74.152 17.58V18.28ZM78.12 19.56L77.6663 20.0931C78.5247 20.8236 79.1928 21.9776 79.6179 23.6377L80.296 23.464L80.9741 23.2903C80.5033 21.4517 79.7206 20.0031 78.5737 19.0269L78.12 19.56ZM80.296 23.464L79.875 22.9047L76.899 25.1447L77.32 25.704L77.741 26.2633L80.717 24.0233L80.296 23.464ZM77.32 25.704V25.004H75.752V25.704V26.404H77.32V25.704ZM75.752 25.704L76.172 26.264L79.628 23.672L79.208 23.112L78.788 22.552L75.332 25.144L75.752 25.704ZM79.208 23.112L79.876 22.9026C79.4014 21.3887 78.6806 20.221 77.6476 19.5238L77.256 20.104L76.8644 20.6842C77.5381 21.139 78.1186 21.9767 78.54 23.3214L79.208 23.112ZM77.256 20.104L77.6544 19.5285C76.6815 18.8549 75.4996 18.54 74.152 18.54V19.24V19.94C75.2791 19.94 76.1665 20.2011 76.8576 20.6795L77.256 20.104ZM74.152 19.24V18.54C73.2726 18.54 72.5035 18.5947 71.8529 18.7109L71.976 19.4L72.0991 20.0891C72.6431 19.9919 73.3247 19.94 74.152 19.94V19.24ZM71.976 19.4L71.8485 18.7117C71.1914 18.8334 70.5366 19.0741 69.8854 19.423L70.216 20.04L70.5466 20.657C71.09 20.3659 71.6086 20.1799 72.1035 20.0883L71.976 19.4ZM70.216 20.04L69.8938 19.4186C69.1548 19.8017 68.6155 20.4249 68.2627 21.2314L68.904 21.512L69.5453 21.7926C69.7898 21.2338 70.1252 20.8756 70.5382 20.6614L70.216 20.04ZM68.904 21.512L68.2627 21.2314C67.9124 22.0321 67.756 23.0113 67.756 24.136H68.456H69.156C69.156 23.1274 69.2983 22.3572 69.5453 21.7926L68.904 21.512ZM68.456 24.136H67.756C67.756 25.32 68.3061 26.3353 69.2826 27.1654L69.736 26.632L70.1894 26.0986C69.4592 25.478 69.156 24.8293 69.156 24.136H68.456ZM69.736 26.632L69.2892 27.1708C70.2264 27.9481 71.3455 28.6006 72.6364 29.1348L72.904 28.488L73.1716 27.8412C71.9879 27.3514 70.9949 26.7666 70.1828 26.0932L69.736 26.632ZM72.904 28.488L72.6364 29.1348C73.8705 29.6455 75.1047 30.1668 76.3389 30.6988L76.616 30.056L76.8931 29.4132C75.6526 28.8785 74.4122 28.3545 73.1716 27.8412L72.904 28.488ZM76.616 30.056L76.3429 30.7005C77.5331 31.2048 78.5128 31.8422 79.2953 32.6052L79.784 32.104L80.2727 31.6028C79.3486 30.7018 78.2163 29.9738 76.8891 29.4115L76.616 30.056ZM79.784 32.104L79.3016 32.6112C80.0541 33.327 80.396 34.1097 80.396 34.984H81.096H81.796C81.796 33.6823 81.2632 32.545 80.2664 31.5968L79.784 32.104ZM81.096 34.984H80.396C80.396 37.0107 79.8896 38.3861 79.0061 39.2521L79.496 39.752L79.986 40.2519C81.2357 39.0272 81.796 37.224 81.796 34.984H81.096ZM79.496 39.752L79.001 39.257C78.1552 40.1028 76.5886 40.62 74.088 40.62V41.32V42.02C76.7074 42.02 78.7461 41.4918 79.991 40.247L79.496 39.752ZM74.088 41.32V40.62C72.0806 40.62 70.5963 40.2193 69.56 39.4976L69.16 40.072L68.76 40.6464C70.113 41.5887 71.9141 42.02 74.088 42.02V41.32ZM69.16 40.072L69.5669 39.5024C68.5375 38.7671 67.7922 37.6148 67.3746 35.9643L66.696 36.136L66.0174 36.3077C66.4958 38.1985 67.3932 39.6702 68.7531 40.6416L69.16 40.072ZM66.696 36.136L66.9717 36.7794L67.8677 36.3954L67.592 35.752L67.3163 35.1086L66.4203 35.4926L66.696 36.136ZM67.592 35.752L66.9124 35.9198C67.3625 37.7426 68.1567 39.1351 69.3797 39.9504L69.768 39.368L70.1563 38.7856C69.3313 38.2355 68.6748 37.2174 68.2716 35.5842L67.592 35.752ZM69.768 39.368L69.3938 39.9596C70.5928 40.7181 72.1809 41.06 74.088 41.06V40.36V39.66C72.3258 39.66 71.0339 39.3405 70.1422 38.7764L69.768 39.368ZM74.088 40.36V41.06C76.2029 41.06 77.9082 40.6565 79.0707 39.7214L78.632 39.176L78.1933 38.6306C77.3931 39.2741 76.0691 39.66 74.088 39.66V40.36ZM78.632 39.176L79.065 39.726C80.314 38.7427 80.836 37.0803 80.836 34.984H80.136H79.436C79.436 36.8984 78.9553 38.0306 78.199 38.626L78.632 39.176ZM80.136 34.984H80.836C80.836 33.7931 80.2687 32.7767 79.2708 31.9492L78.824 32.488L78.3772 33.0268C79.1286 33.65 79.436 34.2976 79.436 34.984H80.136ZM78.824 32.488L79.2774 31.9546C78.3567 31.1721 77.2331 30.5179 75.9198 29.9836L75.656 30.632L75.3922 31.2804C76.5962 31.7701 77.5846 32.3532 78.3706 33.0214L78.824 32.488ZM75.656 30.632L75.9236 29.9852C74.6895 29.4745 73.4553 28.9532 72.2211 28.4212L71.944 29.064L71.6669 29.7068C72.9074 30.2415 74.1478 30.7655 75.3884 31.2788L75.656 30.632ZM71.944 29.064L72.2211 28.4212C71.0509 27.9168 70.0667 27.2776 69.2584 26.5088L68.776 27.016L68.2936 27.5232C69.2347 28.4184 70.3624 29.1445 71.6669 29.7068L71.944 29.064ZM68.776 27.016L69.2647 26.5148C68.5322 25.8007 68.196 25.0163 68.196 24.136H67.496H66.796C66.796 25.4317 67.3131 26.5673 68.2873 27.5172L68.776 27.016ZM99.4175 18.6H100.118V17.9H99.4175V18.6ZM99.4175 19.56V20.26H100.118V19.56H99.4175ZM91.8975 19.56V18.86H91.1975V19.56H91.8975ZM91.8975 41V41.7H92.5975V41H91.8975ZM90.9375 41H90.2375V41.7H90.9375V41ZM90.9375 19.56H91.6375V18.86H90.9375V19.56ZM83.4175 19.56H82.7175V20.26H83.4175V19.56ZM83.4175 18.6V17.9H82.7175V18.6H83.4175ZM99.4175 18.6H98.7175V19.56H99.4175H100.118V18.6H99.4175ZM99.4175 19.56V18.86H91.8975V19.56V20.26H99.4175V19.56ZM91.8975 19.56H91.1975V41H91.8975H92.5975V19.56H91.8975ZM91.8975 41V40.3H90.9375V41V41.7H91.8975V41ZM90.9375 41H91.6375V19.56H90.9375H90.2375V41H90.9375ZM90.9375 19.56V18.86H83.4175V19.56V20.26H90.9375V19.56ZM83.4175 19.56H84.1175V18.6H83.4175H82.7175V19.56H83.4175ZM83.4175 18.6V19.3H99.4175V18.6V17.9H83.4175V18.6ZM103.65 40.04V39.34H102.95V40.04H103.65ZM115.426 40.04V40.74H116.426L116.084 39.8008L115.426 40.04ZM108.642 21.384L109.3 21.1448L108.642 19.336L107.984 21.1447L108.642 21.384ZM101.506 41V41.7H101.996L102.164 41.2393L101.506 41ZM100.482 41L99.8244 40.7607L99.4827 41.7H100.482V41ZM108.642 18.568L109.3 18.3287L108.642 16.5203L107.984 18.3287L108.642 18.568ZM116.802 41V41.7H117.802L117.46 40.7607L116.802 41ZM103.65 41H102.95V41.7H103.65V41ZM103.65 40.04V40.74H115.426V40.04V39.34H103.65V40.04ZM115.426 40.04L116.084 39.8008L109.3 21.1448L108.642 21.384L107.984 21.6232L114.768 40.2792L115.426 40.04ZM108.642 21.384L107.984 21.1447L100.848 40.7607L101.506 41L102.164 41.2393L109.3 21.6233L108.642 21.384ZM101.506 41V40.3H100.482V41V41.7H101.506V41ZM100.482 41L101.14 41.2393L109.3 18.8073L108.642 18.568L107.984 18.3287L99.8244 40.7607L100.482 41ZM108.642 18.568L107.984 18.8073L116.144 41.2393L116.802 41L117.46 40.7607L109.3 18.3287L108.642 18.568ZM116.802 41V40.3H103.65V41V41.7H116.802V41ZM103.65 41H104.35V40.04H103.65H102.95V41H103.65ZM123.039 40.04V39.34H122.339V40.04H123.039ZM131.871 40.04V40.74H132.871L132.529 39.8003L131.871 40.04ZM127.999 29.416L127.652 28.8082L127.139 29.1011L127.341 29.6557L127.999 29.416ZM129.791 28.392L129.453 27.7788L129.444 27.7842L129.791 28.392ZM121.503 19.56V18.86H120.803V19.56H121.503ZM121.503 41V41.7H122.203V41H121.503ZM120.543 41H119.843V41.7H120.543V41ZM120.543 18.6V17.9H119.843V18.6H120.543ZM130.815 20.168L130.402 20.733L130.407 20.737L130.815 20.168ZM130.271 29.224L130.612 29.8351L130.613 29.8349L130.271 29.224ZM129.183 29.832L128.842 29.2209L128.321 29.5116L128.525 30.0714L129.183 29.832ZM133.247 41V41.7H134.247L133.905 40.7606L133.247 41ZM123.039 41H122.339V41.7H123.039V41ZM123.039 40.04V40.74H131.871V40.04V39.34H123.039V40.04ZM131.871 40.04L132.529 39.8003L128.657 29.1763L127.999 29.416L127.341 29.6557L131.213 40.2797L131.871 40.04ZM127.999 29.416L128.346 30.0238L130.138 28.9998L129.791 28.392L129.444 27.7842L127.652 28.8082L127.999 29.416ZM129.791 28.392L130.129 29.0052C130.962 28.546 131.615 27.9342 132.055 27.1628C132.494 26.3932 132.699 25.5036 132.699 24.52H131.999H131.299C131.299 25.3071 131.136 25.9481 130.839 26.4692C130.543 26.9884 130.092 27.4274 129.453 27.7788L129.791 28.392ZM131.999 24.52H132.699C132.699 22.6582 131.973 21.1853 130.495 20.2149C129.069 19.2782 127.019 18.86 124.447 18.86V19.56V20.26C126.91 20.26 128.636 20.6684 129.727 21.3851C130.767 22.068 131.299 23.0751 131.299 24.52H131.999ZM124.447 19.56V18.86H121.503V19.56V20.26H124.447V19.56ZM121.503 19.56H120.803V41H121.503H122.203V19.56H121.503ZM121.503 41V40.3H120.543V41V41.7H121.503V41ZM120.543 41H121.243V18.6H120.543H119.843V41H120.543ZM120.543 18.6V19.3H124.447V18.6V17.9H120.543V18.6ZM124.447 18.6V19.3C127.196 19.3 129.145 19.8135 130.402 20.733L130.815 20.168L131.228 19.603C129.627 18.4318 127.33 17.9 124.447 17.9V18.6ZM130.815 20.168L130.407 20.737C131.639 21.6195 132.259 22.8504 132.259 24.52H132.959H133.659C133.659 22.4349 132.85 20.7645 131.223 19.599L130.815 20.168ZM132.959 24.52H132.259C132.259 25.487 132.057 26.2882 131.679 26.9487C131.303 27.6078 130.73 28.1652 129.929 28.6131L130.271 29.224L130.613 29.8349C131.604 29.2802 132.375 28.5522 132.895 27.6433C133.413 26.7358 133.659 25.6863 133.659 24.52H132.959ZM130.271 29.224L129.93 28.6129L128.842 29.2209L129.183 29.832L129.524 30.4431L130.612 29.8351L130.271 29.224ZM129.183 29.832L128.525 30.0714L132.589 41.2394L133.247 41L133.905 40.7606L129.841 29.5926L129.183 29.832ZM133.247 41V40.3H123.039V41V41.7H133.247V41ZM123.039 41H123.739V40.04H123.039H122.339V41H123.039ZM151.449 18.6H152.149V17.9H151.449V18.6ZM151.449 19.56V20.26H152.149V19.56H151.449ZM143.929 19.56V18.86H143.229V19.56H143.929ZM143.929 41V41.7H144.629V41H143.929ZM142.969 41H142.269V41.7H142.969V41ZM142.969 19.56H143.669V18.86H142.969V19.56ZM135.449 19.56H134.749V20.26H135.449V19.56ZM135.449 18.6V17.9H134.749V18.6H135.449ZM151.449 18.6H150.749V19.56H151.449H152.149V18.6H151.449ZM151.449 19.56V18.86H143.929V19.56V20.26H151.449V19.56ZM143.929 19.56H143.229V41H143.929H144.629V19.56H143.929ZM143.929 41V40.3H142.969V41V41.7H143.929V41ZM142.969 41H143.669V19.56H142.969H142.269V41H142.969ZM142.969 19.56V18.86H135.449V19.56V20.26H142.969V19.56ZM135.449 19.56H136.149V18.6H135.449H134.749V19.56H135.449ZM135.449 18.6V19.3H151.449V18.6V17.9H135.449V18.6ZM178.431 36.904L179.079 37.169L179.328 36.5592L178.735 36.2733L178.431 36.904ZM175.999 40.168L175.585 39.6039L175.999 40.168ZM165.599 38.92L165.032 39.3304L165.035 39.334L165.599 38.92ZM165.599 20.712L166.163 21.126L166.166 21.1224L165.599 20.712ZM175.999 19.432L175.585 19.9961V19.9961L175.999 19.432ZM178.431 22.696L178.735 23.3267L179.328 23.0408L179.079 22.431L178.431 22.696ZM177.567 23.112L176.916 23.37L177.193 24.0688L177.871 23.7427L177.567 23.112ZM175.487 20.264L175.063 20.8209L175.071 20.8272L175.487 20.264ZM168.607 19.656L168.834 20.3182L168.842 20.3153L168.851 20.3122L168.607 19.656ZM166.591 21L167.103 21.4776L166.591 21ZM165.247 23.784L165.926 23.9538L165.927 23.951L165.247 23.784ZM165.247 35.848L164.567 36.015L164.568 36.0178L165.247 35.848ZM166.591 38.6L166.079 39.0776L166.591 38.6ZM168.607 39.976L168.363 40.6322L168.372 40.6353L168.38 40.6382L168.607 39.976ZM175.487 39.368L175.903 39.9313L175.911 39.9248L175.487 39.368ZM177.567 36.488L177.871 35.8573L177.193 35.5312L176.916 36.23L177.567 36.488ZM178.431 36.904L177.783 36.639C177.247 37.9486 176.509 38.9245 175.585 39.6039L175.999 40.168L176.413 40.7321C177.579 39.8755 178.463 38.6754 179.079 37.169L178.431 36.904ZM175.999 40.168L175.585 39.6039C174.713 40.2443 173.321 40.62 171.295 40.62V41.32V42.02C173.451 42.02 175.194 41.6277 176.413 40.7321L175.999 40.168ZM171.295 41.32V40.62C168.815 40.62 167.165 39.8711 166.163 38.506L165.599 38.92L165.035 39.334C166.38 41.1689 168.527 42.02 171.295 42.02V41.32ZM165.599 38.92L166.166 38.5096C165.121 37.0659 164.539 34.7273 164.539 31.368H163.839H163.139C163.139 34.8354 163.73 37.5315 165.032 39.3304L165.599 38.92ZM163.839 31.368H164.539V28.232H163.839H163.139V31.368H163.839ZM163.839 28.232H164.539C164.539 24.8715 165.122 22.5465 166.163 21.126L165.599 20.712L165.035 20.298C163.73 22.0775 163.139 24.7658 163.139 28.232H163.839ZM165.599 20.712L166.166 21.1224C167.168 19.7373 168.819 18.98 171.295 18.98V18.28V17.58C168.523 17.58 166.376 18.4441 165.032 20.3016L165.599 20.712ZM171.295 18.28V18.98C173.321 18.98 174.713 19.3557 175.585 19.9961L175.999 19.432L176.413 18.8679C175.194 17.9723 173.451 17.58 171.295 17.58V18.28ZM175.999 19.432L175.585 19.9961C176.509 20.6755 177.247 21.6514 177.783 22.961L178.431 22.696L179.079 22.431C178.463 20.9246 177.579 19.7245 176.413 18.8679L175.999 19.432ZM178.431 22.696L178.127 22.0653L177.263 22.4813L177.567 23.112L177.871 23.7427L178.735 23.3267L178.431 22.696ZM177.567 23.112L178.218 22.854C177.688 21.5189 176.923 20.4539 175.903 19.7008L175.487 20.264L175.071 20.8272C175.843 21.3968 176.464 22.2304 176.916 23.37L177.567 23.112ZM175.487 20.264L175.911 19.7072C174.835 18.8869 173.252 18.54 171.295 18.54V19.24V19.94C173.136 19.94 174.347 20.2757 175.063 20.8208L175.487 20.264ZM171.295 19.24V18.54C170.191 18.54 169.208 18.686 168.363 18.9998L168.607 19.656L168.851 20.3122C169.499 20.0713 170.308 19.94 171.295 19.94V19.24ZM168.607 19.656L168.38 18.9938C167.513 19.291 166.746 19.8078 166.079 20.5224L166.591 21L167.103 21.4776C167.63 20.9122 168.207 20.533 168.834 20.3182L168.607 19.656ZM166.591 21L166.079 20.5224C165.373 21.2795 164.883 22.3318 164.567 23.617L165.247 23.784L165.927 23.951C166.208 22.8042 166.615 22.0005 167.103 21.4776L166.591 21ZM165.247 23.784L164.568 23.6142C164.251 24.8828 164.099 26.4268 164.099 28.232H164.799H165.499C165.499 26.4959 165.646 25.0746 165.926 23.9538L165.247 23.784ZM164.799 28.232H164.099V31.368H164.799H165.499V28.232H164.799ZM164.799 31.368H164.099C164.099 33.1737 164.251 34.727 164.567 36.015L165.247 35.848L165.927 35.681C165.646 34.537 165.499 33.1036 165.499 31.368H164.799ZM165.247 35.848L164.568 36.0178C164.884 37.2833 165.375 38.3227 166.079 39.0776L166.591 38.6L167.103 38.1224C166.613 37.5973 166.207 36.802 165.926 35.6782L165.247 35.848ZM166.591 38.6L166.079 39.0776C166.743 39.7892 167.505 40.3133 168.363 40.6322L168.607 39.976L168.851 39.3198C168.216 39.084 167.633 38.6908 167.103 38.1224L166.591 38.6ZM168.607 39.976L168.38 40.6382C169.219 40.9259 170.196 41.06 171.295 41.06V40.36V39.66C170.303 39.66 169.488 39.5381 168.834 39.3138L168.607 39.976ZM171.295 40.36V41.06C173.248 41.06 174.828 40.7248 175.903 39.9312L175.487 39.368L175.071 38.8048C174.354 39.3339 173.139 39.66 171.295 39.66V40.36ZM175.487 39.368L175.911 39.9248C176.926 39.152 177.689 38.08 178.218 36.746L177.567 36.488L176.916 36.23C176.464 37.3707 175.84 38.2187 175.063 38.8112L175.487 39.368ZM177.567 36.488L177.263 37.1187L178.127 37.5347L178.431 36.904L178.735 36.2733L177.871 35.8573L177.567 36.488ZM196.7 40.04H197.4V39.34H196.7V40.04ZM196.7 41V41.7H197.4V41H196.7ZM183.324 41H182.624V41.7H183.324V41ZM183.324 18.6V17.9H182.624V18.6H183.324ZM184.284 18.6H184.984V17.9H184.284V18.6ZM184.284 40.04H183.584V40.74H184.284V40.04ZM196.7 40.04H196V41H196.7H197.4V40.04H196.7ZM196.7 41V40.3H183.324V41V41.7H196.7V41ZM183.324 41H184.024V18.6H183.324H182.624V41H183.324ZM183.324 18.6V19.3H184.284V18.6V17.9H183.324V18.6ZM184.284 18.6H183.584V40.04H184.284H184.984V18.6H184.284ZM184.284 40.04V40.74H196.7V40.04V39.34H184.284V40.04ZM201.316 41V41.7H202.016V41H201.316ZM200.355 41H199.656V41.7H200.355V41ZM200.355 18.6V17.9H199.656V18.6H200.355ZM201.316 18.6H202.016V17.9H201.316V18.6ZM201.316 41V40.3H200.355V41V41.7H201.316V41ZM200.355 41H201.055V18.6H200.355H199.656V41H200.355ZM200.355 18.6V19.3H201.316V18.6V17.9H200.355V18.6ZM201.316 18.6H200.615V41H201.316H202.016V18.6H201.316ZM210.133 40.04V39.34H209.433V40.04H210.133ZM220.053 40.04V40.74H221.266L220.659 39.6895L220.053 40.04ZM208.597 20.232L209.203 19.8815L207.897 17.6235V20.232H208.597ZM208.597 41V41.7H209.297V41H208.597ZM207.637 41H206.937V41.7H207.637V41ZM207.637 18.6V17.9H206.937V18.6H207.637ZM208.757 18.6L209.363 18.2497L209.161 17.9H208.757V18.6ZM220.725 39.304L220.119 39.6543L221.425 41.9137V39.304H220.725ZM220.725 18.6V17.9H220.025V18.6H220.725ZM221.685 18.6H222.385V17.9H221.685V18.6ZM221.685 41V41.7H222.385V41H221.685ZM210.133 41H209.433V41.7H210.133V41ZM210.133 40.04V40.74H220.053V40.04V39.34H210.133V40.04ZM220.053 40.04L220.659 39.6895L209.203 19.8815L208.597 20.232L207.991 20.5825L219.447 40.3905L220.053 40.04ZM208.597 20.232H207.897V41H208.597H209.297V20.232H208.597ZM208.597 41V40.3H207.637V41V41.7H208.597V41ZM207.637 41H208.337V18.6H207.637H206.937V41H207.637ZM207.637 18.6V19.3H208.757V18.6V17.9H207.637V18.6ZM208.757 18.6L208.151 18.9503L220.119 39.6543L220.725 39.304L221.331 38.9537L209.363 18.2497L208.757 18.6ZM220.725 39.304H221.425V18.6H220.725H220.025V39.304H220.725ZM220.725 18.6V19.3H221.685V18.6V17.9H220.725V18.6ZM221.685 18.6H220.985V41H221.685H222.385V18.6H221.685ZM221.685 41V40.3H210.133V41V41.7H221.685V41ZM210.133 41H210.833V40.04H210.133H209.433V41H210.133ZM228.972 41V41.7H229.672V41H228.972ZM228.012 41H227.312V41.7H228.012V41ZM228.012 18.6V17.9H227.312V18.6H228.012ZM228.972 18.6H229.672V17.9H228.972V18.6ZM228.972 41V40.3H228.012V41V41.7H228.972V41ZM228.012 41H228.712V18.6H228.012H227.312V41H228.012ZM228.012 18.6V19.3H228.972V18.6V17.9H228.012V18.6ZM228.972 18.6H228.272V41H228.972H229.672V18.6H228.972ZM249.181 36.904L249.829 37.169L250.078 36.5592L249.485 36.2733L249.181 36.904ZM246.749 40.168L246.335 39.6039L246.749 40.168ZM236.349 38.92L235.782 39.3304L235.785 39.334L236.349 38.92ZM236.349 20.712L236.913 21.126L236.916 21.1224L236.349 20.712ZM246.749 19.432L246.335 19.9961V19.9961L246.749 19.432ZM249.181 22.696L249.485 23.3267L250.078 23.0408L249.829 22.431L249.181 22.696ZM248.317 23.112L247.666 23.37L247.943 24.0688L248.621 23.7427L248.317 23.112ZM246.237 20.264L245.813 20.8209L245.821 20.8272L246.237 20.264ZM239.357 19.656L239.584 20.3182L239.592 20.3153L239.601 20.3122L239.357 19.656ZM237.341 21L237.853 21.4776L237.341 21ZM235.997 23.784L236.676 23.9538L236.677 23.951L235.997 23.784ZM235.997 35.848L235.317 36.015L235.318 36.0178L235.997 35.848ZM237.341 38.6L236.829 39.0776L237.341 38.6ZM239.357 39.976L239.113 40.6322L239.122 40.6353L239.13 40.6382L239.357 39.976ZM246.237 39.368L246.653 39.9313L246.661 39.9248L246.237 39.368ZM248.317 36.488L248.621 35.8573L247.943 35.5312L247.666 36.23L248.317 36.488ZM249.181 36.904L248.533 36.639C247.997 37.9486 247.259 38.9245 246.335 39.6039L246.749 40.168L247.163 40.7321C248.329 39.8755 249.213 38.6754 249.829 37.169L249.181 36.904ZM246.749 40.168L246.335 39.6039C245.463 40.2443 244.071 40.62 242.045 40.62V41.32V42.02C244.201 42.02 245.944 41.6277 247.163 40.7321L246.749 40.168ZM242.045 41.32V40.62C239.565 40.62 237.915 39.8711 236.913 38.506L236.349 38.92L235.785 39.334C237.13 41.1689 239.277 42.02 242.045 42.02V41.32ZM236.349 38.92L236.916 38.5096C235.871 37.0659 235.289 34.7273 235.289 31.368H234.589H233.889C233.889 34.8354 234.48 37.5315 235.782 39.3304L236.349 38.92ZM234.589 31.368H235.289V28.232H234.589H233.889V31.368H234.589ZM234.589 28.232H235.289C235.289 24.8715 235.872 22.5465 236.913 21.126L236.349 20.712L235.785 20.298C234.48 22.0775 233.889 24.7658 233.889 28.232H234.589ZM236.349 20.712L236.916 21.1224C237.918 19.7373 239.569 18.98 242.045 18.98V18.28V17.58C239.273 17.58 237.126 18.4441 235.782 20.3016L236.349 20.712ZM242.045 18.28V18.98C244.071 18.98 245.463 19.3557 246.335 19.9961L246.749 19.432L247.163 18.8679C245.944 17.9723 244.201 17.58 242.045 17.58V18.28ZM246.749 19.432L246.335 19.9961C247.259 20.6755 247.997 21.6514 248.533 22.961L249.181 22.696L249.829 22.431C249.213 20.9246 248.329 19.7245 247.163 18.8679L246.749 19.432ZM249.181 22.696L248.877 22.0653L248.013 22.4813L248.317 23.112L248.621 23.7427L249.485 23.3267L249.181 22.696ZM248.317 23.112L248.968 22.854C248.438 21.5189 247.673 20.4539 246.653 19.7008L246.237 20.264L245.821 20.8272C246.593 21.3968 247.214 22.2304 247.666 23.37L248.317 23.112ZM246.237 20.264L246.661 19.7072C245.585 18.8869 244.002 18.54 242.045 18.54V19.24V19.94C243.886 19.94 245.097 20.2757 245.813 20.8208L246.237 20.264ZM242.045 19.24V18.54C240.941 18.54 239.958 18.686 239.113 18.9998L239.357 19.656L239.601 20.3122C240.249 20.0713 241.058 19.94 242.045 19.94V19.24ZM239.357 19.656L239.13 18.9938C238.263 19.291 237.496 19.8078 236.829 20.5224L237.341 21L237.853 21.4776C238.38 20.9122 238.957 20.533 239.584 20.3182L239.357 19.656ZM237.341 21L236.829 20.5224C236.123 21.2795 235.633 22.3318 235.317 23.617L235.997 23.784L236.677 23.951C236.958 22.8042 237.365 22.0005 237.853 21.4776L237.341 21ZM235.997 23.784L235.318 23.6142C235.001 24.8828 234.849 26.4268 234.849 28.232H235.549H236.249C236.249 26.4959 236.396 25.0746 236.676 23.9538L235.997 23.784ZM235.549 28.232H234.849V31.368H235.549H236.249V28.232H235.549ZM235.549 31.368H234.849C234.849 33.1737 235.001 34.727 235.317 36.015L235.997 35.848L236.677 35.681C236.396 34.537 236.249 33.1036 236.249 31.368H235.549ZM235.997 35.848L235.318 36.0178C235.634 37.2833 236.125 38.3227 236.829 39.0776L237.341 38.6L237.853 38.1224C237.363 37.5973 236.957 36.802 236.676 35.6782L235.997 35.848ZM237.341 38.6L236.829 39.0776C237.493 39.7892 238.255 40.3133 239.113 40.6322L239.357 39.976L239.601 39.3198C238.966 39.084 238.383 38.6908 237.853 38.1224L237.341 38.6ZM239.357 39.976L239.13 40.6382C239.969 40.9259 240.946 41.06 242.045 41.06V40.36V39.66C241.053 39.66 240.238 39.5381 239.584 39.3138L239.357 39.976ZM242.045 40.36V41.06C243.998 41.06 245.578 40.7248 246.653 39.9312L246.237 39.368L245.821 38.8048C245.104 39.3339 243.889 39.66 242.045 39.66V40.36ZM246.237 39.368L246.661 39.9248C247.676 39.152 248.439 38.08 248.968 36.746L248.317 36.488L247.666 36.23C247.214 37.3707 246.59 38.2187 245.813 38.8112L246.237 39.368ZM248.317 36.488L248.013 37.1187L248.877 37.5347L249.181 36.904L249.485 36.2733L248.621 35.8573L248.317 36.488Z" fill="#FEF9F9" mask="url(#path-1-outside-1_2_2)"/>
<path d="M108.5 26L112.397 39.5H104.603L108.5 26Z" fill="#FD2F2F"/>
<circle cx="242.5" cy="23.5" r="3.5" fill="#FD2F2F"/>
<circle cx="171.5" cy="23.5" r="3.5" fill="#FD2F2F"/>
<ellipse cx="30" cy="28" rx="30" ry="28" fill="#FD2F2F"/>
<mask id="path-7-outside-2_2_2" maskUnits="userSpaceOnUse" x="19" y="11" width="22" height="32" fill="black">
<rect fill="white" x="19" y="11" width="22" height="32"/>
<path d="M22.12 19.92C22.12 17.3333 22.7733 15.4667 24.08 14.32C25.3867 13.1733 27.5067 12.6 30.44 12.6C32.4933 12.6 34.1467 13.1333 35.4 14.2C36.6533 15.2667 37.56 16.8933 38.12 19.08L34.4 21.88H32.44L36.76 18.64C36.2 16.8533 35.3867 15.6 34.32 14.88C33.28 14.16 31.9867 13.8 30.44 13.8C29.3733 13.8 28.4667 13.8667 27.72 14C27 14.1333 26.2667 14.4 25.52 14.8C24.8 15.1733 24.2533 15.7867 23.88 16.64C23.5067 17.4933 23.32 18.5867 23.32 19.92C23.32 21.0933 23.8533 22.1333 24.92 23.04C26.0133 23.9467 27.3333 24.72 28.88 25.36C30.4267 26 31.9733 26.6533 33.52 27.32C35.0933 27.9867 36.4133 28.84 37.48 29.88C38.5733 30.92 39.12 32.12 39.12 33.48C39.12 36.1467 38.4533 38.1333 37.12 39.44C35.8133 40.7467 33.56 41.4 30.36 41.4C27.7467 41.4 25.6933 40.88 24.2 39.84C22.7067 38.7733 21.68 37.1333 21.12 34.92L22.24 34.44C22.7733 36.6 23.68 38.1067 24.96 38.96C26.2667 39.7867 28.0667 40.2 30.36 40.2C32.92 40.2 34.8133 39.7067 36.04 38.72C37.2933 37.7333 37.92 35.9867 37.92 33.48C37.92 32.3067 37.3733 31.2667 36.28 30.36C35.2133 29.4533 33.8933 28.68 32.32 28.04C30.7733 27.4 29.2267 26.7467 27.68 26.08C26.1333 25.4133 24.8133 24.56 23.72 23.52C22.6533 22.48 22.12 21.28 22.12 19.92Z"/>
</mask>
<path d="M22.12 19.92C22.12 17.3333 22.7733 15.4667 24.08 14.32C25.3867 13.1733 27.5067 12.6 30.44 12.6C32.4933 12.6 34.1467 13.1333 35.4 14.2C36.6533 15.2667 37.56 16.8933 38.12 19.08L34.4 21.88H32.44L36.76 18.64C36.2 16.8533 35.3867 15.6 34.32 14.88C33.28 14.16 31.9867 13.8 30.44 13.8C29.3733 13.8 28.4667 13.8667 27.72 14C27 14.1333 26.2667 14.4 25.52 14.8C24.8 15.1733 24.2533 15.7867 23.88 16.64C23.5067 17.4933 23.32 18.5867 23.32 19.92C23.32 21.0933 23.8533 22.1333 24.92 23.04C26.0133 23.9467 27.3333 24.72 28.88 25.36C30.4267 26 31.9733 26.6533 33.52 27.32C35.0933 27.9867 36.4133 28.84 37.48 29.88C38.5733 30.92 39.12 32.12 39.12 33.48C39.12 36.1467 38.4533 38.1333 37.12 39.44C35.8133 40.7467 33.56 41.4 30.36 41.4C27.7467 41.4 25.6933 40.88 24.2 39.84C22.7067 38.7733 21.68 37.1333 21.12 34.92L22.24 34.44C22.7733 36.6 23.68 38.1067 24.96 38.96C26.2667 39.7867 28.0667 40.2 30.36 40.2C32.92 40.2 34.8133 39.7067 36.04 38.72C37.2933 37.7333 37.92 35.9867 37.92 33.48C37.92 32.3067 37.3733 31.2667 36.28 30.36C35.2133 29.4533 33.8933 28.68 32.32 28.04C30.7733 27.4 29.2267 26.7467 27.68 26.08C26.1333 25.4133 24.8133 24.56 23.72 23.52C22.6533 22.48 22.12 21.28 22.12 19.92Z" fill="#FEF9F9"/>
<path d="M24.08 14.32L23.2885 13.418H23.2885L24.08 14.32ZM35.4 14.2L34.6223 15.1138H34.6223L35.4 14.2ZM38.12 19.08L38.8417 20.0388L39.481 19.5575L39.2825 18.7823L38.12 19.08ZM34.4 21.88V23.08H34.8011L35.1216 22.8388L34.4 21.88ZM32.44 21.88L31.72 20.92L28.84 23.08H32.44V21.88ZM36.76 18.64L37.48 19.6L38.1589 19.0908L37.9051 18.2811L36.76 18.64ZM34.32 14.88L33.6369 15.8666L33.6428 15.8707L33.6486 15.8746L34.32 14.88ZM27.72 14L27.509 12.8187L27.5015 12.8201L27.72 14ZM25.52 14.8L26.0724 15.8653L26.0795 15.8616L26.0867 15.8578L25.52 14.8ZM23.88 16.64L24.9794 17.121L23.88 16.64ZM24.92 23.04L24.1428 23.9543L24.1484 23.9591L24.154 23.9637L24.92 23.04ZM28.88 25.36L29.3388 24.2512L28.88 25.36ZM33.52 27.32L33.045 28.422L33.0518 28.4249L33.52 27.32ZM37.48 29.88L36.6423 30.7392L36.6476 30.7444L36.6529 30.7495L37.48 29.88ZM37.12 39.44L36.28 38.5829L36.2715 38.5915L37.12 39.44ZM24.2 39.84L23.5025 40.8165L23.5083 40.8206L23.5142 40.8247L24.2 39.84ZM21.12 34.92L20.6473 33.817L19.7053 34.2208L19.9567 35.2143L21.12 34.92ZM22.24 34.44L23.405 34.1523L23.0662 32.7803L21.7673 33.337L22.24 34.44ZM24.96 38.96L24.2944 39.9585L24.3063 39.9664L24.3184 39.9741L24.96 38.96ZM36.04 38.72L35.2977 37.7771L35.2879 37.7849L36.04 38.72ZM36.28 30.36L35.5028 31.2743L35.5084 31.2791L35.514 31.2837L36.28 30.36ZM32.32 28.04L31.8612 29.1488L31.8678 29.1516L32.32 28.04ZM23.72 23.52L22.8823 24.3792L22.8876 24.3844L22.8929 24.3895L23.72 23.52ZM22.12 19.92H23.32C23.32 17.5082 23.9298 16.0483 24.8715 15.2219L24.08 14.32L23.2885 13.418C21.6168 14.885 20.92 17.1585 20.92 19.92H22.12ZM24.08 14.32L24.8715 15.2219C25.8518 14.3617 27.6131 13.8 30.44 13.8V12.6V11.4C27.4002 11.4 24.9216 11.985 23.2885 13.418L24.08 14.32ZM30.44 12.6V13.8C32.2812 13.8 33.6357 14.2742 34.6223 15.1138L35.4 14.2L36.1777 13.2862C34.6577 11.9925 32.7055 11.4 30.44 11.4V12.6ZM35.4 14.2L34.6223 15.1138C35.6282 15.97 36.4367 17.3441 36.9575 19.3777L38.12 19.08L39.2825 18.7823C38.6833 16.4426 37.6784 14.5633 36.1777 13.2862L35.4 14.2ZM38.12 19.08L37.3984 18.1212L33.6784 20.9212L34.4 21.88L35.1216 22.8388L38.8417 20.0388L38.12 19.08ZM34.4 21.88V20.68H32.44V21.88V23.08H34.4V21.88ZM32.44 21.88L33.16 22.84L37.48 19.6L36.76 18.64L36.04 17.68L31.72 20.92L32.44 21.88ZM36.76 18.64L37.9051 18.2811C37.2996 16.3494 36.3659 14.8132 34.9914 13.8854L34.32 14.88L33.6486 15.8746C34.4074 16.3868 35.1004 17.3573 35.6149 18.9989L36.76 18.64ZM34.32 14.88L35.0031 13.8934C33.7214 13.0061 32.1757 12.6 30.44 12.6V13.8V15C31.7977 15 32.8386 15.3139 33.6369 15.8666L34.32 14.88ZM30.44 13.8V12.6C29.3287 12.6 28.347 12.6691 27.5091 12.8187L27.72 14L27.9309 15.1813C28.5863 15.0643 29.418 15 30.44 15V13.8ZM27.72 14L27.5015 12.8201C26.6425 12.9791 25.7923 13.2928 24.9533 13.7422L25.52 14.8L26.0867 15.8578C26.741 15.5072 27.3575 15.2875 27.9385 15.1799L27.72 14ZM25.52 14.8L24.9676 13.7347C23.9682 14.2529 23.2468 15.0934 22.7806 16.159L23.88 16.64L24.9794 17.121C25.2598 16.48 25.6318 16.0938 26.0724 15.8653L25.52 14.8ZM23.88 16.64L22.7806 16.159C22.3188 17.2146 22.12 18.4871 22.12 19.92H23.32H24.52C24.52 18.6862 24.6946 17.772 24.9794 17.121L23.88 16.64ZM23.32 19.92H22.12C22.12 21.5139 22.865 22.8682 24.1428 23.9543L24.92 23.04L25.6972 22.1257C24.8417 21.3985 24.52 20.6727 24.52 19.92H23.32ZM24.92 23.04L24.154 23.9637C25.3547 24.9594 26.7827 25.7908 28.4212 26.4688L28.88 25.36L29.3388 24.2512C27.884 23.6492 26.672 22.9339 25.686 22.1163L24.92 23.04ZM28.88 25.36L28.4212 26.4688C29.9624 27.1066 31.5037 27.7576 33.045 28.422L33.52 27.32L33.995 26.218C32.443 25.549 30.8909 24.8934 29.3388 24.2512L28.88 25.36ZM33.52 27.32L33.0518 28.4249C34.5077 29.0418 35.6969 29.8175 36.6423 30.7392L37.48 29.88L38.3177 29.0208C37.1297 27.8625 35.6789 26.9315 33.9882 26.2151L33.52 27.32ZM37.48 29.88L36.6529 30.7495C37.537 31.5904 37.92 32.4864 37.92 33.48H39.12H40.32C40.32 31.7536 39.6097 30.2496 38.3071 29.0105L37.48 29.88ZM39.12 33.48H37.92C37.92 35.9638 37.2996 37.5839 36.2801 38.5829L37.12 39.44L37.9599 40.2971C39.6071 38.6828 40.32 36.3295 40.32 33.48H39.12ZM37.12 39.44L36.2715 38.5915C35.3069 39.5561 33.4582 40.2 30.36 40.2V41.4V42.6C33.6618 42.6 36.3198 41.9372 37.9685 40.2885L37.12 39.44ZM30.36 41.4V40.2C27.8894 40.2 26.1076 39.7062 24.8858 38.8553L24.2 39.84L23.5142 40.8247C25.2791 42.0538 27.6039 42.6 30.36 42.6V41.4ZM24.2 39.84L24.8975 38.8635C23.6875 37.9993 22.7912 36.633 22.2833 34.6257L21.12 34.92L19.9567 35.2143C20.5688 37.6336 21.7258 39.5474 23.5025 40.8165L24.2 39.84ZM21.12 34.92L21.5927 36.023L22.7127 35.543L22.24 34.44L21.7673 33.337L20.6473 33.817L21.12 34.92ZM22.24 34.44L21.075 34.7277C21.6485 37.0502 22.6733 38.8777 24.2944 39.9585L24.96 38.96L25.6256 37.9615C24.6867 37.3356 23.8982 36.1498 23.405 34.1523L22.24 34.44ZM24.96 38.96L24.3184 39.9741C25.8886 40.9675 27.9424 41.4 30.36 41.4V40.2V39C28.1909 39 26.6447 38.6059 25.6016 37.9459L24.96 38.96ZM30.36 40.2V41.4C33.0347 41.4 35.2548 40.8916 36.7921 39.6551L36.04 38.72L35.2879 37.7849C34.3719 38.5217 32.8053 39 30.36 39V40.2ZM36.04 38.72L36.7823 39.6629C38.4579 38.3438 39.12 36.1426 39.12 33.48H37.92H36.72C36.72 35.8307 36.1287 37.1229 35.2977 37.7771L36.04 38.72ZM37.92 33.48H39.12C39.12 31.8743 38.3505 30.5181 37.046 29.4363L36.28 30.36L35.514 31.2837C36.3961 32.0152 36.72 32.7391 36.72 33.48H37.92ZM36.28 30.36L37.0572 29.4457C35.8752 28.441 34.4393 27.6066 32.7722 26.9284L32.32 28.04L31.8678 29.1516C33.3474 29.7534 34.5515 30.4657 35.5028 31.2743L36.28 30.36ZM32.32 28.04L32.7788 26.9312C31.2376 26.2934 29.6963 25.6424 28.155 24.978L27.68 26.08L27.205 27.182C28.757 27.851 30.3091 28.5066 31.8612 29.1488L32.32 28.04ZM27.68 26.08L28.155 24.978C26.7235 24.361 25.5265 23.5822 24.5471 22.6505L23.72 23.52L22.8929 24.3895C24.1002 25.5378 25.5432 26.4657 27.205 27.182L27.68 26.08ZM23.72 23.52L24.5577 22.6608C23.6983 21.8229 23.32 20.9239 23.32 19.92H22.12H20.92C20.92 21.6361 21.6084 23.1371 22.8823 24.3792L23.72 23.52Z" fill="#FEF9F9" mask="url(#path-7-outside-2_2_2)"/>
<circle cx="30" cy="17" r="2" fill="white"/>
<path d="M82.359 61H81.189V56.671H76.431V61H75.261V51.718H76.431V55.644H81.189V51.718H82.359V61ZM87.3797 53.915C88.2291 53.915 88.8574 54.1013 89.2647 54.474C89.6721 54.8467 89.8757 55.4403 89.8757 56.255V61H89.0437L88.8227 60.012H88.7707C88.5714 60.2633 88.3634 60.4757 88.1467 60.649C87.9387 60.8137 87.6961 60.935 87.4187 61.013C87.1501 61.091 86.8207 61.13 86.4307 61.13C86.0147 61.13 85.6377 61.0563 85.2997 60.909C84.9704 60.7617 84.7104 60.5363 84.5197 60.233C84.3291 59.921 84.2337 59.531 84.2337 59.063C84.2337 58.3697 84.5067 57.8367 85.0527 57.464C85.5987 57.0827 86.4394 56.8747 87.5747 56.84L88.7577 56.801V56.385C88.7577 55.8043 88.6321 55.4013 88.3807 55.176C88.1294 54.9507 87.7741 54.838 87.3147 54.838C86.9507 54.838 86.6041 54.8943 86.2747 55.007C85.9454 55.111 85.6377 55.2323 85.3517 55.371L85.0007 54.513C85.3041 54.3483 85.6637 54.2097 86.0797 54.097C86.4957 53.9757 86.9291 53.915 87.3797 53.915ZM87.7177 57.633C86.8511 57.6677 86.2487 57.8063 85.9107 58.049C85.5814 58.2917 85.4167 58.634 85.4167 59.076C85.4167 59.466 85.5337 59.752 85.7677 59.934C86.0104 60.116 86.3181 60.207 86.6907 60.207C87.2801 60.207 87.7697 60.0467 88.1597 59.726C88.5497 59.3967 88.7447 58.894 88.7447 58.218V57.594L87.7177 57.633ZM95.3429 53.902C96.2009 53.902 96.8899 54.201 97.4099 54.799C97.9385 55.397 98.2029 56.2983 98.2029 57.503C98.2029 58.2917 98.0815 58.959 97.8389 59.505C97.6049 60.0423 97.2712 60.4497 96.8379 60.727C96.4132 60.9957 95.9105 61.13 95.3299 61.13C94.9745 61.13 94.6582 61.0823 94.3809 60.987C94.1035 60.8917 93.8652 60.7703 93.6659 60.623C93.4752 60.467 93.3105 60.298 93.1719 60.116H93.0939C93.1112 60.2633 93.1285 60.4497 93.1459 60.675C93.1632 60.9003 93.1719 61.0953 93.1719 61.26V64.12H92.0279V54.032H92.9639L93.1199 54.981H93.1719C93.3105 54.7817 93.4752 54.5997 93.6659 54.435C93.8652 54.2703 94.0992 54.1403 94.3679 54.045C94.6452 53.9497 94.9702 53.902 95.3429 53.902ZM95.1349 54.864C94.6669 54.864 94.2899 54.955 94.0039 55.137C93.7179 55.3103 93.5099 55.5747 93.3799 55.93C93.2499 56.2853 93.1805 56.736 93.1719 57.282V57.503C93.1719 58.075 93.2325 58.5603 93.3539 58.959C93.4752 59.3577 93.6789 59.661 93.9649 59.869C94.2595 60.077 94.6582 60.181 95.1609 60.181C95.5855 60.181 95.9322 60.064 96.2009 59.83C96.4782 59.596 96.6819 59.2797 96.8119 58.881C96.9505 58.4737 97.0199 58.01 97.0199 57.49C97.0199 56.6927 96.8639 56.0557 96.5519 55.579C96.2485 55.1023 95.7762 54.864 95.1349 54.864ZM104.147 54.032H105.395L102.418 57.386L105.642 61H104.316L101.17 57.464V61H100.026V54.032H101.17V57.412L104.147 54.032ZM112.711 57.503C112.711 58.0837 112.633 58.5993 112.477 59.05C112.33 59.492 112.113 59.869 111.827 60.181C111.55 60.493 111.207 60.7313 110.8 60.896C110.401 61.052 109.955 61.13 109.461 61.13C109.002 61.13 108.577 61.052 108.187 60.896C107.797 60.7313 107.459 60.493 107.173 60.181C106.887 59.869 106.662 59.492 106.497 59.05C106.341 58.5993 106.263 58.0837 106.263 57.503C106.263 56.7317 106.393 56.0817 106.653 55.553C106.913 55.0157 107.286 54.6083 107.771 54.331C108.256 54.045 108.833 53.902 109.5 53.902C110.133 53.902 110.687 54.045 111.164 54.331C111.649 54.6083 112.026 55.0157 112.295 55.553C112.572 56.0817 112.711 56.7317 112.711 57.503ZM107.446 57.503C107.446 58.049 107.515 58.5257 107.654 58.933C107.801 59.3317 108.027 59.6393 108.33 59.856C108.633 60.0727 109.019 60.181 109.487 60.181C109.955 60.181 110.341 60.0727 110.644 59.856C110.947 59.6393 111.168 59.3317 111.307 58.933C111.454 58.5257 111.528 58.049 111.528 57.503C111.528 56.9483 111.454 56.476 111.307 56.086C111.16 55.696 110.934 55.397 110.631 55.189C110.336 54.9723 109.951 54.864 109.474 54.864C108.763 54.864 108.248 55.098 107.927 55.566C107.606 56.034 107.446 56.6797 107.446 57.503ZM119.828 61H118.671V54.981H116.617C116.53 56.0817 116.422 57.022 116.292 57.802C116.162 58.5733 115.997 59.2017 115.798 59.687C115.599 60.1723 115.36 60.5277 115.083 60.753C114.806 60.9783 114.481 61.091 114.108 61.091C113.995 61.091 113.883 61.0823 113.77 61.065C113.666 61.0563 113.579 61.0347 113.51 61V60.142C113.562 60.1593 113.618 60.1723 113.679 60.181C113.74 60.1897 113.8 60.194 113.861 60.194C114.052 60.194 114.225 60.116 114.381 59.96C114.537 59.804 114.676 59.5657 114.797 59.245C114.927 58.9243 115.044 58.5213 115.148 58.036C115.252 57.542 115.343 56.9613 115.421 56.294C115.499 55.6267 115.568 54.8727 115.629 54.032H119.828V61ZM128.098 57.503C128.098 58.0837 128.02 58.5993 127.864 59.05C127.716 59.492 127.5 59.869 127.214 60.181C126.936 60.493 126.594 60.7313 126.187 60.896C125.788 61.052 125.342 61.13 124.848 61.13C124.388 61.13 123.964 61.052 123.574 60.896C123.184 60.7313 122.846 60.493 122.56 60.181C122.274 59.869 122.048 59.492 121.884 59.05C121.728 58.5993 121.65 58.0837 121.65 57.503C121.65 56.7317 121.78 56.0817 122.04 55.553C122.3 55.0157 122.672 54.6083 123.158 54.331C123.643 54.045 124.219 53.902 124.887 53.902C125.519 53.902 126.074 54.045 126.551 54.331C127.036 54.6083 127.413 55.0157 127.682 55.553C127.959 56.0817 128.098 56.7317 128.098 57.503ZM122.833 57.503C122.833 58.049 122.902 58.5257 123.041 58.933C123.188 59.3317 123.413 59.6393 123.717 59.856C124.02 60.0727 124.406 60.181 124.874 60.181C125.342 60.181 125.727 60.0727 126.031 59.856C126.334 59.6393 126.555 59.3317 126.694 58.933C126.841 58.5257 126.915 58.049 126.915 57.503C126.915 56.9483 126.841 56.476 126.694 56.086C126.546 55.696 126.321 55.397 126.018 55.189C125.723 54.9723 125.337 54.864 124.861 54.864C124.15 54.864 123.634 55.098 123.314 55.566C122.993 56.034 122.833 56.6797 122.833 57.503ZM134.162 54.032V54.994H131.055V61H129.911V54.032H134.162ZM136.614 58.283C136.614 58.361 136.609 58.4737 136.601 58.621C136.601 58.7597 136.596 58.9113 136.588 59.076C136.579 59.232 136.57 59.3837 136.562 59.531C136.553 59.6697 136.544 59.7823 136.536 59.869L140.267 54.032H141.671V61H140.605V56.892C140.605 56.7533 140.605 56.5713 140.605 56.346C140.613 56.1207 140.622 55.8997 140.631 55.683C140.639 55.4577 140.648 55.2887 140.657 55.176L136.952 61H135.535V54.032H136.614V58.283ZM144.889 56.567C144.889 56.9743 145.002 57.2777 145.227 57.477C145.461 57.6677 145.795 57.763 146.228 57.763C146.662 57.763 147.056 57.698 147.411 57.568C147.767 57.4293 148.131 57.2473 148.503 57.022V54.032H149.647V61H148.503V57.893C148.113 58.1443 147.728 58.3437 147.346 58.491C146.974 58.6297 146.523 58.699 145.994 58.699C145.284 58.699 144.729 58.5127 144.33 58.14C143.94 57.7673 143.745 57.269 143.745 56.645V54.032H144.889V56.567ZM154.552 53.902C155.15 53.902 155.661 54.032 156.086 54.292C156.519 54.552 156.849 54.9203 157.074 55.397C157.308 55.865 157.425 56.4153 157.425 57.048V57.737H152.654C152.671 58.5257 152.871 59.128 153.252 59.544C153.642 59.9513 154.184 60.155 154.877 60.155C155.319 60.155 155.709 60.116 156.047 60.038C156.394 59.9513 156.749 59.83 157.113 59.674V60.675C156.758 60.831 156.407 60.9437 156.06 61.013C155.713 61.091 155.302 61.13 154.825 61.13C154.166 61.13 153.581 60.9957 153.07 60.727C152.567 60.4583 152.173 60.0597 151.887 59.531C151.61 58.9937 151.471 58.3393 151.471 57.568C151.471 56.8053 151.597 56.151 151.848 55.605C152.108 55.059 152.468 54.6387 152.927 54.344C153.395 54.0493 153.937 53.902 154.552 53.902ZM154.539 54.838C153.993 54.838 153.56 55.0157 153.239 55.371C152.927 55.7177 152.741 56.203 152.68 56.827H156.229C156.229 56.4283 156.168 56.0817 156.047 55.787C155.926 55.4923 155.739 55.2627 155.488 55.098C155.245 54.9247 154.929 54.838 154.539 54.838ZM161.994 61.13C161.378 61.13 160.828 61.0043 160.343 60.753C159.866 60.5017 159.489 60.1117 159.212 59.583C158.943 59.0543 158.809 58.3783 158.809 57.555C158.809 56.697 158.952 55.9993 159.238 55.462C159.524 54.9247 159.909 54.5303 160.395 54.279C160.889 54.0277 161.448 53.902 162.072 53.902C162.427 53.902 162.769 53.941 163.099 54.019C163.428 54.0883 163.697 54.175 163.905 54.279L163.554 55.228C163.346 55.15 163.103 55.0763 162.826 55.007C162.548 54.9377 162.288 54.903 162.046 54.903C161.578 54.903 161.192 55.0027 160.889 55.202C160.585 55.4013 160.36 55.696 160.213 56.086C160.065 56.476 159.992 56.9613 159.992 57.542C159.992 58.0967 160.065 58.569 160.213 58.959C160.36 59.349 160.581 59.6437 160.876 59.843C161.17 60.0423 161.539 60.142 161.981 60.142C162.362 60.142 162.696 60.103 162.982 60.025C163.276 59.947 163.545 59.8517 163.788 59.739V60.753C163.554 60.8743 163.294 60.9653 163.008 61.026C162.73 61.0953 162.392 61.13 161.994 61.13ZM169.566 54.032H170.814L167.837 57.386L171.061 61H169.735L166.589 57.464V61H165.445V54.032H166.589V57.412L169.566 54.032ZM174.965 53.915C175.814 53.915 176.442 54.1013 176.85 54.474C177.257 54.8467 177.461 55.4403 177.461 56.255V61H176.629L176.408 60.012H176.356C176.156 60.2633 175.948 60.4757 175.732 60.649C175.524 60.8137 175.281 60.935 175.004 61.013C174.735 61.091 174.406 61.13 174.016 61.13C173.6 61.13 173.223 61.0563 172.885 60.909C172.555 60.7617 172.295 60.5363 172.105 60.233C171.914 59.921 171.819 59.531 171.819 59.063C171.819 58.3697 172.092 57.8367 172.638 57.464C173.184 57.0827 174.024 56.8747 175.16 56.84L176.343 56.801V56.385C176.343 55.8043 176.217 55.4013 175.966 55.176C175.714 54.9507 175.359 54.838 174.9 54.838C174.536 54.838 174.189 54.8943 173.86 55.007C173.53 55.111 173.223 55.2323 172.937 55.371L172.586 54.513C172.889 54.3483 173.249 54.2097 173.665 54.097C174.081 53.9757 174.514 53.915 174.965 53.915ZM175.303 57.633C174.436 57.6677 173.834 57.8063 173.496 58.049C173.166 58.2917 173.002 58.634 173.002 59.076C173.002 59.466 173.119 59.752 173.353 59.934C173.595 60.116 173.903 60.207 174.276 60.207C174.865 60.207 175.355 60.0467 175.745 59.726C176.135 59.3967 176.33 58.894 176.33 58.218V57.594L175.303 57.633ZM180.042 61H178.716L180.705 58.075C180.436 58.0057 180.176 57.8973 179.925 57.75C179.673 57.594 179.47 57.3817 179.314 57.113C179.158 56.8357 179.08 56.4933 179.08 56.086C179.08 55.4187 179.305 54.9117 179.756 54.565C180.206 54.2097 180.804 54.032 181.55 54.032H184.67V61H183.526V58.231H181.836L180.042 61ZM180.185 56.099C180.185 56.4977 180.332 56.7967 180.627 56.996C180.93 57.1867 181.35 57.282 181.888 57.282H183.526V54.981H181.667C181.138 54.981 180.757 55.085 180.523 55.293C180.297 55.501 180.185 55.7697 180.185 56.099ZM194.83 54.032H196.078L193.101 57.386L196.325 61H194.999L191.853 57.464V61H190.709V54.032H191.853V57.412L194.83 54.032ZM202.893 61H201.736V54.981H199.682C199.596 56.0817 199.487 57.022 199.357 57.802C199.227 58.5733 199.063 59.2017 198.863 59.687C198.664 60.1723 198.426 60.5277 198.148 60.753C197.871 60.9783 197.546 61.091 197.173 61.091C197.061 61.091 196.948 61.0823 196.835 61.065C196.731 61.0563 196.645 61.0347 196.575 61V60.142C196.627 60.1593 196.684 60.1723 196.744 60.181C196.805 60.1897 196.866 60.194 196.926 60.194C197.117 60.194 197.29 60.116 197.446 59.96C197.602 59.804 197.741 59.5657 197.862 59.245C197.992 58.9243 198.109 58.5213 198.213 58.036C198.317 57.542 198.408 56.9613 198.486 56.294C198.564 55.6267 198.634 54.8727 198.694 54.032H202.893V61ZM206.184 58.283C206.184 58.361 206.18 58.4737 206.171 58.621C206.171 58.7597 206.167 58.9113 206.158 59.076C206.149 59.232 206.141 59.3837 206.132 59.531C206.123 59.6697 206.115 59.7823 206.106 59.869L209.837 54.032H211.241V61H210.175V56.892C210.175 56.7533 210.175 56.5713 210.175 56.346C210.184 56.1207 210.192 55.8997 210.201 55.683C210.21 55.4577 210.218 55.2887 210.227 55.176L206.522 61H205.105V54.032H206.184V58.283ZM214.603 54.032V56.931H218.386V54.032H219.53V61H218.386V57.893H214.603V61H213.459V54.032H214.603ZM222.815 58.283C222.815 58.361 222.811 58.4737 222.802 58.621C222.802 58.7597 222.798 58.9113 222.789 59.076C222.78 59.232 222.772 59.3837 222.763 59.531C222.754 59.6697 222.746 59.7823 222.737 59.869L226.468 54.032H227.872V61H226.806V56.892C226.806 56.7533 226.806 56.5713 226.806 56.346C226.815 56.1207 226.823 55.8997 226.832 55.683C226.841 55.4577 226.849 55.2887 226.858 55.176L223.153 61H221.736V54.032H222.815V58.283ZM234.21 54.032H235.458L232.481 57.386L235.705 61H234.379L231.233 57.464V61H230.089V54.032H231.233V57.412L234.21 54.032ZM239.609 53.915C240.459 53.915 241.087 54.1013 241.494 54.474C241.902 54.8467 242.105 55.4403 242.105 56.255V61H241.273L241.052 60.012H241C240.801 60.2633 240.593 60.4757 240.376 60.649C240.168 60.8137 239.926 60.935 239.648 61.013C239.38 61.091 239.05 61.13 238.66 61.13C238.244 61.13 237.867 61.0563 237.529 60.909C237.2 60.7617 236.94 60.5363 236.749 60.233C236.559 59.921 236.463 59.531 236.463 59.063C236.463 58.3697 236.736 57.8367 237.282 57.464C237.828 57.0827 238.669 56.8747 239.804 56.84L240.987 56.801V56.385C240.987 55.8043 240.862 55.4013 240.61 55.176C240.359 54.9507 240.004 54.838 239.544 54.838C239.18 54.838 238.834 54.8943 238.504 55.007C238.175 55.111 237.867 55.2323 237.581 55.371L237.23 54.513C237.534 54.3483 237.893 54.2097 238.309 54.097C238.725 53.9757 239.159 53.915 239.609 53.915ZM239.947 57.633C239.081 57.6677 238.478 57.8063 238.14 58.049C237.811 58.2917 237.646 58.634 237.646 59.076C237.646 59.466 237.763 59.752 237.997 59.934C238.24 60.116 238.548 60.207 238.92 60.207C239.51 60.207 239.999 60.0467 240.389 59.726C240.779 59.3967 240.974 58.894 240.974 58.218V57.594L239.947 57.633Z" fill="white"/>
</svg>
