<svg width="273" height="56" viewBox="0 0 273 56" fill="none" xmlns="http://www.w3.org/2000/svg">
<mask id="path-1-outside-1_26_3" maskUnits="userSpaceOnUse" x="65" y="9" width="186" height="27" fill="black">
<rect fill="white" x="65" y="9" width="186" height="27"/>
<path d="M67.496 17.136C67.496 15.0667 68.0187 13.5733 69.064 12.656C70.1093 11.7387 71.8053 11.28 74.152 11.28C75.7947 11.28 77.1173 11.7067 78.12 12.56C79.1227 13.4133 79.848 14.7147 80.296 16.464L77.32 18.704H75.752L79.208 16.112C78.76 14.6827 78.1093 13.68 77.256 13.104C76.424 12.528 75.3893 12.24 74.152 12.24C73.2987 12.24 72.5733 12.2933 71.976 12.4C71.4 12.5067 70.8133 12.72 70.216 13.04C69.64 13.3387 69.2027 13.8293 68.904 14.512C68.6053 15.1947 68.456 16.0693 68.456 17.136C68.456 18.0747 68.8827 18.9067 69.736 19.632C70.6107 20.3573 71.6667 20.976 72.904 21.488C74.1413 22 75.3787 22.5227 76.616 23.056C77.8747 23.5893 78.9307 24.272 79.784 25.104C80.6587 25.936 81.096 26.896 81.096 27.984C81.096 30.1173 80.5627 31.7067 79.496 32.752C78.4507 33.7973 76.648 34.32 74.088 34.32C71.9973 34.32 70.3547 33.904 69.16 33.072C67.9653 32.2187 67.144 30.9067 66.696 29.136L67.592 28.752C68.0187 30.48 68.744 31.6853 69.768 32.368C70.8133 33.0293 72.2533 33.36 74.088 33.36C76.136 33.36 77.6507 32.9653 78.632 32.176C79.6347 31.3867 80.136 29.9893 80.136 27.984C80.136 27.0453 79.6987 26.2133 78.824 25.488C77.9707 24.7627 76.9147 24.144 75.656 23.632C74.4187 23.12 73.1813 22.5973 71.944 22.064C70.7067 21.5307 69.6507 20.848 68.776 20.016C67.9227 19.184 67.496 18.224 67.496 17.136ZM99.4175 11.6V12.56H91.8975V34H90.9375V12.56H83.4175V11.6H99.4175ZM103.65 33.04H115.426L108.642 14.384L101.506 34H100.482L108.642 11.568L116.802 34H103.65V33.04ZM123.039 33.04H131.871L127.999 22.416L129.791 21.392C131.263 20.5813 131.999 19.2907 131.999 17.52C131.999 14.2133 129.482 12.56 124.447 12.56H121.503V34H120.543V11.6H124.447C127.263 11.6 129.386 12.1227 130.815 13.168C132.244 14.192 132.959 15.6427 132.959 17.52C132.959 19.6533 132.063 21.2213 130.271 22.224L129.183 22.832L133.247 34H123.039V33.04ZM151.449 11.6V12.56H143.929V34H142.969V12.56H135.449V11.6H151.449ZM178.431 29.904C177.855 31.312 177.044 32.4 175.999 33.168C174.954 33.936 173.386 34.32 171.295 34.32C168.671 34.32 166.772 33.52 165.599 31.92C164.426 30.2987 163.839 27.7813 163.839 24.368V21.232C163.839 17.8187 164.426 15.312 165.599 13.712C166.772 12.0907 168.671 11.28 171.295 11.28C173.386 11.28 174.954 11.664 175.999 12.432C177.044 13.2 177.855 14.288 178.431 15.696L177.567 16.112C177.076 14.8747 176.383 13.9253 175.487 13.264C174.591 12.5813 173.194 12.24 171.295 12.24C170.25 12.24 169.354 12.3787 168.607 12.656C167.86 12.912 167.188 13.36 166.591 14C165.994 14.64 165.546 15.568 165.247 16.784C164.948 17.9787 164.799 19.4613 164.799 21.232V24.368C164.799 26.1387 164.948 27.632 165.247 28.848C165.546 30.0427 165.994 30.96 166.591 31.6C167.188 32.24 167.86 32.6987 168.607 32.976C169.354 33.232 170.25 33.36 171.295 33.36C173.194 33.36 174.591 33.0293 175.487 32.368C176.383 31.6853 177.076 30.7253 177.567 29.488L178.431 29.904ZM196.7 33.04V34H183.324V11.6H184.284V33.04H196.7ZM201.316 34H200.356V11.6H201.316V34ZM210.133 33.04H220.053L208.597 13.232V34H207.637V11.6H208.757L220.725 32.304V11.6H221.685V34H210.133V33.04ZM228.972 34H228.012V11.6H228.972V34ZM249.181 29.904C248.605 31.312 247.794 32.4 246.749 33.168C245.704 33.936 244.136 34.32 242.045 34.32C239.421 34.32 237.522 33.52 236.349 31.92C235.176 30.2987 234.589 27.7813 234.589 24.368V21.232C234.589 17.8187 235.176 15.312 236.349 13.712C237.522 12.0907 239.421 11.28 242.045 11.28C244.136 11.28 245.704 11.664 246.749 12.432C247.794 13.2 248.605 14.288 249.181 15.696L248.317 16.112C247.826 14.8747 247.133 13.9253 246.237 13.264C245.341 12.5813 243.944 12.24 242.045 12.24C241 12.24 240.104 12.3787 239.357 12.656C238.61 12.912 237.938 13.36 237.341 14C236.744 14.64 236.296 15.568 235.997 16.784C235.698 17.9787 235.549 19.4613 235.549 21.232V24.368C235.549 26.1387 235.698 27.632 235.997 28.848C236.296 30.0427 236.744 30.96 237.341 31.6C237.938 32.24 238.61 32.6987 239.357 32.976C240.104 33.232 241 33.36 242.045 33.36C243.944 33.36 245.341 33.0293 246.237 32.368C247.133 31.6853 247.826 30.7253 248.317 29.488L249.181 29.904Z"/>
</mask>
<path d="M67.496 17.136C67.496 15.0667 68.0187 13.5733 69.064 12.656C70.1093 11.7387 71.8053 11.28 74.152 11.28C75.7947 11.28 77.1173 11.7067 78.12 12.56C79.1227 13.4133 79.848 14.7147 80.296 16.464L77.32 18.704H75.752L79.208 16.112C78.76 14.6827 78.1093 13.68 77.256 13.104C76.424 12.528 75.3893 12.24 74.152 12.24C73.2987 12.24 72.5733 12.2933 71.976 12.4C71.4 12.5067 70.8133 12.72 70.216 13.04C69.64 13.3387 69.2027 13.8293 68.904 14.512C68.6053 15.1947 68.456 16.0693 68.456 17.136C68.456 18.0747 68.8827 18.9067 69.736 19.632C70.6107 20.3573 71.6667 20.976 72.904 21.488C74.1413 22 75.3787 22.5227 76.616 23.056C77.8747 23.5893 78.9307 24.272 79.784 25.104C80.6587 25.936 81.096 26.896 81.096 27.984C81.096 30.1173 80.5627 31.7067 79.496 32.752C78.4507 33.7973 76.648 34.32 74.088 34.32C71.9973 34.32 70.3547 33.904 69.16 33.072C67.9653 32.2187 67.144 30.9067 66.696 29.136L67.592 28.752C68.0187 30.48 68.744 31.6853 69.768 32.368C70.8133 33.0293 72.2533 33.36 74.088 33.36C76.136 33.36 77.6507 32.9653 78.632 32.176C79.6347 31.3867 80.136 29.9893 80.136 27.984C80.136 27.0453 79.6987 26.2133 78.824 25.488C77.9707 24.7627 76.9147 24.144 75.656 23.632C74.4187 23.12 73.1813 22.5973 71.944 22.064C70.7067 21.5307 69.6507 20.848 68.776 20.016C67.9227 19.184 67.496 18.224 67.496 17.136ZM99.4175 11.6V12.56H91.8975V34H90.9375V12.56H83.4175V11.6H99.4175ZM103.65 33.04H115.426L108.642 14.384L101.506 34H100.482L108.642 11.568L116.802 34H103.65V33.04ZM123.039 33.04H131.871L127.999 22.416L129.791 21.392C131.263 20.5813 131.999 19.2907 131.999 17.52C131.999 14.2133 129.482 12.56 124.447 12.56H121.503V34H120.543V11.6H124.447C127.263 11.6 129.386 12.1227 130.815 13.168C132.244 14.192 132.959 15.6427 132.959 17.52C132.959 19.6533 132.063 21.2213 130.271 22.224L129.183 22.832L133.247 34H123.039V33.04ZM151.449 11.6V12.56H143.929V34H142.969V12.56H135.449V11.6H151.449ZM178.431 29.904C177.855 31.312 177.044 32.4 175.999 33.168C174.954 33.936 173.386 34.32 171.295 34.32C168.671 34.32 166.772 33.52 165.599 31.92C164.426 30.2987 163.839 27.7813 163.839 24.368V21.232C163.839 17.8187 164.426 15.312 165.599 13.712C166.772 12.0907 168.671 11.28 171.295 11.28C173.386 11.28 174.954 11.664 175.999 12.432C177.044 13.2 177.855 14.288 178.431 15.696L177.567 16.112C177.076 14.8747 176.383 13.9253 175.487 13.264C174.591 12.5813 173.194 12.24 171.295 12.24C170.25 12.24 169.354 12.3787 168.607 12.656C167.86 12.912 167.188 13.36 166.591 14C165.994 14.64 165.546 15.568 165.247 16.784C164.948 17.9787 164.799 19.4613 164.799 21.232V24.368C164.799 26.1387 164.948 27.632 165.247 28.848C165.546 30.0427 165.994 30.96 166.591 31.6C167.188 32.24 167.86 32.6987 168.607 32.976C169.354 33.232 170.25 33.36 171.295 33.36C173.194 33.36 174.591 33.0293 175.487 32.368C176.383 31.6853 177.076 30.7253 177.567 29.488L178.431 29.904ZM196.7 33.04V34H183.324V11.6H184.284V33.04H196.7ZM201.316 34H200.356V11.6H201.316V34ZM210.133 33.04H220.053L208.597 13.232V34H207.637V11.6H208.757L220.725 32.304V11.6H221.685V34H210.133V33.04ZM228.972 34H228.012V11.6H228.972V34ZM249.181 29.904C248.605 31.312 247.794 32.4 246.749 33.168C245.704 33.936 244.136 34.32 242.045 34.32C239.421 34.32 237.522 33.52 236.349 31.92C235.176 30.2987 234.589 27.7813 234.589 24.368V21.232C234.589 17.8187 235.176 15.312 236.349 13.712C237.522 12.0907 239.421 11.28 242.045 11.28C244.136 11.28 245.704 11.664 246.749 12.432C247.794 13.2 248.605 14.288 249.181 15.696L248.317 16.112C247.826 14.8747 247.133 13.9253 246.237 13.264C245.341 12.5813 243.944 12.24 242.045 12.24C241 12.24 240.104 12.3787 239.357 12.656C238.61 12.912 237.938 13.36 237.341 14C236.744 14.64 236.296 15.568 235.997 16.784C235.698 17.9787 235.549 19.4613 235.549 21.232V24.368C235.549 26.1387 235.698 27.632 235.997 28.848C236.296 30.0427 236.744 30.96 237.341 31.6C237.938 32.24 238.61 32.6987 239.357 32.976C240.104 33.232 241 33.36 242.045 33.36C243.944 33.36 245.341 33.0293 246.237 32.368C247.133 31.6853 247.826 30.7253 248.317 29.488L249.181 29.904Z" fill="black"/>
<path d="M69.064 12.656L68.6023 12.1299L68.6023 12.1299L69.064 12.656ZM78.12 12.56L77.6663 13.0931L77.6663 13.0931L78.12 12.56ZM80.296 16.464L80.717 17.0233L81.0899 16.7425L80.9741 16.2903L80.296 16.464ZM77.32 18.704V19.404H77.554L77.741 19.2633L77.32 18.704ZM75.752 18.704L75.332 18.144L73.652 19.404H75.752V18.704ZM79.208 16.112L79.628 16.672L80.024 16.375L79.876 15.9026L79.208 16.112ZM77.256 13.104L76.8575 13.6796L76.8644 13.6842L77.256 13.104ZM71.976 12.4L71.8529 11.7109L71.8485 11.7117L71.976 12.4ZM70.216 13.04L70.5383 13.6615L70.5466 13.657L70.216 13.04ZM68.904 14.512L69.5453 14.7926L69.5453 14.7926L68.904 14.512ZM69.736 19.632L69.2826 20.1654L69.2892 20.1708L69.736 19.632ZM72.904 21.488L73.1716 20.8412L73.1716 20.8412L72.904 21.488ZM76.616 23.056L76.3389 23.6988L76.3429 23.7005L76.616 23.056ZM79.784 25.104L79.2953 25.6052L79.3016 25.6112L79.784 25.104ZM79.496 32.752L79.006 32.252L79.001 32.257L79.496 32.752ZM69.16 33.072L68.7531 33.6417L68.76 33.6464L69.16 33.072ZM66.696 29.136L66.4203 28.4926L65.8707 28.7281L66.0174 29.3077L66.696 29.136ZM67.592 28.752L68.2716 28.5842L68.074 27.7839L67.3163 28.1086L67.592 28.752ZM69.768 32.368L69.3797 32.9504L69.3867 32.9551L69.3938 32.9596L69.768 32.368ZM78.632 32.176L78.199 31.626L78.1933 31.6306L78.632 32.176ZM78.824 25.488L78.3706 26.0214L78.3772 26.0268L78.824 25.488ZM75.656 23.632L75.3883 24.2788L75.3922 24.2804L75.656 23.632ZM68.776 20.016L68.2873 20.5172L68.2936 20.5232L68.776 20.016ZM67.496 17.136H68.196C68.196 15.1686 68.6933 13.9126 69.5257 13.1821L69.064 12.656L68.6023 12.1299C67.344 13.234 66.796 14.9647 66.796 17.136H67.496ZM69.064 12.656L69.5257 13.1821C70.3806 12.4319 71.8674 11.98 74.152 11.98V11.28V10.58C71.7432 10.58 69.838 11.0454 68.6023 12.1299L69.064 12.656ZM74.152 11.28V11.98C75.6709 11.98 76.8192 12.3722 77.6663 13.0931L78.12 12.56L78.5737 12.0269C77.4154 11.0412 75.9184 10.58 74.152 10.58V11.28ZM78.12 12.56L77.6663 13.0931C78.5247 13.8236 79.1928 14.9776 79.6179 16.6377L80.296 16.464L80.9741 16.2903C80.5032 14.4517 79.7206 13.0031 78.5737 12.0269L78.12 12.56ZM80.296 16.464L79.875 15.9047L76.899 18.1447L77.32 18.704L77.741 19.2633L80.717 17.0233L80.296 16.464ZM77.32 18.704V18.004H75.752V18.704V19.404H77.32V18.704ZM75.752 18.704L76.172 19.264L79.628 16.672L79.208 16.112L78.788 15.552L75.332 18.144L75.752 18.704ZM79.208 16.112L79.876 15.9026C79.4014 14.3887 78.6806 13.221 77.6476 12.5238L77.256 13.104L76.8644 13.6842C77.5381 14.139 78.1186 14.9767 78.54 16.3214L79.208 16.112ZM77.256 13.104L77.6544 12.5285C76.6815 11.8549 75.4996 11.54 74.152 11.54V12.24V12.94C75.2791 12.94 76.1665 13.2011 76.8576 13.6795L77.256 13.104ZM74.152 12.24V11.54C73.2726 11.54 72.5035 11.5947 71.8529 11.7109L71.976 12.4L72.0991 13.0891C72.6431 12.9919 73.3247 12.94 74.152 12.94V12.24ZM71.976 12.4L71.8485 11.7117C71.1914 11.8334 70.5366 12.0741 69.8854 12.423L70.216 13.04L70.5466 13.657C71.09 13.3659 71.6086 13.1799 72.1035 13.0883L71.976 12.4ZM70.216 13.04L69.8938 12.4186C69.1548 12.8017 68.6155 13.4249 68.2627 14.2314L68.904 14.512L69.5453 14.7926C69.7898 14.2338 70.1252 13.8756 70.5382 13.6614L70.216 13.04ZM68.904 14.512L68.2627 14.2314C67.9124 15.0321 67.756 16.0113 67.756 17.136H68.456H69.156C69.156 16.1274 69.2983 15.3572 69.5453 14.7926L68.904 14.512ZM68.456 17.136H67.756C67.756 18.32 68.3061 19.3353 69.2826 20.1654L69.736 19.632L70.1894 19.0986C69.4592 18.478 69.156 17.8293 69.156 17.136H68.456ZM69.736 19.632L69.2892 20.1708C70.2264 20.9481 71.3455 21.6006 72.6364 22.1348L72.904 21.488L73.1716 20.8412C71.9879 20.3514 70.9949 19.7666 70.1828 19.0932L69.736 19.632ZM72.904 21.488L72.6364 22.1348C73.8705 22.6455 75.1047 23.1668 76.3389 23.6988L76.616 23.056L76.8931 22.4132C75.6526 21.8785 74.4122 21.3545 73.1716 20.8412L72.904 21.488ZM76.616 23.056L76.3429 23.7005C77.5331 24.2048 78.5128 24.8422 79.2953 25.6052L79.784 25.104L80.2727 24.6028C79.3486 23.7018 78.2163 22.9738 76.8891 22.4115L76.616 23.056ZM79.784 25.104L79.3016 25.6112C80.0541 26.327 80.396 27.1097 80.396 27.984H81.096H81.796C81.796 26.6823 81.2632 25.545 80.2665 24.5968L79.784 25.104ZM81.096 27.984H80.396C80.396 30.0107 79.8896 31.3861 79.0061 32.2521L79.496 32.752L79.986 33.2519C81.2357 32.0272 81.796 30.224 81.796 27.984H81.096ZM79.496 32.752L79.001 32.257C78.1552 33.1028 76.5886 33.62 74.088 33.62V34.32V35.02C76.7074 35.02 78.7461 34.4918 79.991 33.247L79.496 32.752ZM74.088 34.32V33.62C72.0806 33.62 70.5963 33.2193 69.56 32.4976L69.16 33.072L68.76 33.6464C70.113 34.5887 71.9141 35.02 74.088 35.02V34.32ZM69.16 33.072L69.5669 32.5024C68.5375 31.7671 67.7922 30.6148 67.3746 28.9643L66.696 29.136L66.0174 29.3077C66.4958 31.1985 67.3932 32.6702 68.7531 33.6416L69.16 33.072ZM66.696 29.136L66.9717 29.7794L67.8677 29.3954L67.592 28.752L67.3163 28.1086L66.4203 28.4926L66.696 29.136ZM67.592 28.752L66.9124 28.9198C67.3625 30.7426 68.1567 32.1351 69.3797 32.9504L69.768 32.368L70.1563 31.7856C69.3313 31.2355 68.6748 30.2174 68.2716 28.5842L67.592 28.752ZM69.768 32.368L69.3938 32.9596C70.5928 33.7181 72.1809 34.06 74.088 34.06V33.36V32.66C72.3258 32.66 71.0339 32.3405 70.1422 31.7764L69.768 32.368ZM74.088 33.36V34.06C76.2029 34.06 77.9082 33.6565 79.0707 32.7214L78.632 32.176L78.1933 31.6306C77.3931 32.2741 76.0691 32.66 74.088 32.66V33.36ZM78.632 32.176L79.065 32.726C80.314 31.7427 80.836 30.0803 80.836 27.984H80.136H79.436C79.436 29.8984 78.9553 31.0306 78.199 31.626L78.632 32.176ZM80.136 27.984H80.836C80.836 26.7931 80.2687 25.7767 79.2708 24.9492L78.824 25.488L78.3772 26.0268C79.1286 26.65 79.436 27.2976 79.436 27.984H80.136ZM78.824 25.488L79.2774 24.9546C78.3567 24.1721 77.2331 23.5179 75.9198 22.9836L75.656 23.632L75.3922 24.2804C76.5962 24.7701 77.5846 25.3532 78.3706 26.0214L78.824 25.488ZM75.656 23.632L75.9236 22.9852C74.6895 22.4745 73.4553 21.9532 72.2211 21.4212L71.944 22.064L71.6669 22.7068C72.9074 23.2415 74.1478 23.7655 75.3884 24.2788L75.656 23.632ZM71.944 22.064L72.2211 21.4212C71.0509 20.9168 70.0667 20.2776 69.2584 19.5088L68.776 20.016L68.2936 20.5232C69.2347 21.4184 70.3624 22.1445 71.6669 22.7068L71.944 22.064ZM68.776 20.016L69.2647 19.5148C68.5322 18.8007 68.196 18.0163 68.196 17.136H67.496H66.796C66.796 18.4317 67.3131 19.5673 68.2873 20.5172L68.776 20.016ZM99.4175 11.6H100.118V10.9H99.4175V11.6ZM99.4175 12.56V13.26H100.118V12.56H99.4175ZM91.8975 12.56V11.86H91.1975V12.56H91.8975ZM91.8975 34V34.7H92.5975V34H91.8975ZM90.9375 34H90.2375V34.7H90.9375V34ZM90.9375 12.56H91.6375V11.86H90.9375V12.56ZM83.4175 12.56H82.7175V13.26H83.4175V12.56ZM83.4175 11.6V10.9H82.7175V11.6H83.4175ZM99.4175 11.6H98.7175V12.56H99.4175H100.118V11.6H99.4175ZM99.4175 12.56V11.86H91.8975V12.56V13.26H99.4175V12.56ZM91.8975 12.56H91.1975V34H91.8975H92.5975V12.56H91.8975ZM91.8975 34V33.3H90.9375V34V34.7H91.8975V34ZM90.9375 34H91.6375V12.56H90.9375H90.2375V34H90.9375ZM90.9375 12.56V11.86H83.4175V12.56V13.26H90.9375V12.56ZM83.4175 12.56H84.1175V11.6H83.4175H82.7175V12.56H83.4175ZM83.4175 11.6V12.3H99.4175V11.6V10.9H83.4175V11.6ZM103.65 33.04V32.34H102.95V33.04H103.65ZM115.426 33.04V33.74H116.426L116.084 32.8008L115.426 33.04ZM108.642 14.384L109.3 14.1448L108.642 12.336L107.984 14.1447L108.642 14.384ZM101.506 34V34.7H101.996L102.164 34.2393L101.506 34ZM100.482 34L99.8244 33.7607L99.4827 34.7H100.482V34ZM108.642 11.568L109.3 11.3287L108.642 9.52032L107.984 11.3287L108.642 11.568ZM116.802 34V34.7H117.802L117.46 33.7607L116.802 34ZM103.65 34H102.95V34.7H103.65V34ZM103.65 33.04V33.74H115.426V33.04V32.34H103.65V33.04ZM115.426 33.04L116.084 32.8008L109.3 14.1448L108.642 14.384L107.984 14.6232L114.768 33.2792L115.426 33.04ZM108.642 14.384L107.984 14.1447L100.848 33.7607L101.506 34L102.164 34.2393L109.3 14.6233L108.642 14.384ZM101.506 34V33.3H100.482V34V34.7H101.506V34ZM100.482 34L101.14 34.2393L109.3 11.8073L108.642 11.568L107.984 11.3287L99.8244 33.7607L100.482 34ZM108.642 11.568L107.984 11.8073L116.144 34.2393L116.802 34L117.46 33.7607L109.3 11.3287L108.642 11.568ZM116.802 34V33.3H103.65V34V34.7H116.802V34ZM103.65 34H104.35V33.04H103.65H102.95V34H103.65ZM123.039 33.04V32.34H122.339V33.04H123.039ZM131.871 33.04V33.74H132.871L132.529 32.8003L131.871 33.04ZM127.999 22.416L127.652 21.8082L127.139 22.1011L127.341 22.6557L127.999 22.416ZM129.791 21.392L129.453 20.7788L129.444 20.7842L129.791 21.392ZM121.503 12.56V11.86H120.803V12.56H121.503ZM121.503 34V34.7H122.203V34H121.503ZM120.543 34H119.843V34.7H120.543V34ZM120.543 11.6V10.9H119.843V11.6H120.543ZM130.815 13.168L130.402 13.733L130.407 13.737L130.815 13.168ZM130.271 22.224L130.612 22.8351L130.613 22.8349L130.271 22.224ZM129.183 22.832L128.842 22.2209L128.321 22.5116L128.525 23.0714L129.183 22.832ZM133.247 34V34.7H134.247L133.905 33.7606L133.247 34ZM123.039 34H122.339V34.7H123.039V34ZM123.039 33.04V33.74H131.871V33.04V32.34H123.039V33.04ZM131.871 33.04L132.529 32.8003L128.657 22.1763L127.999 22.416L127.341 22.6557L131.213 33.2797L131.871 33.04ZM127.999 22.416L128.346 23.0238L130.138 21.9998L129.791 21.392L129.444 20.7842L127.652 21.8082L127.999 22.416ZM129.791 21.392L130.129 22.0052C130.962 21.546 131.615 20.9342 132.055 20.1628C132.494 19.3932 132.699 18.5036 132.699 17.52H131.999H131.299C131.299 18.3071 131.136 18.9481 130.839 19.4692C130.543 19.9884 130.092 20.4274 129.453 20.7788L129.791 21.392ZM131.999 17.52H132.699C132.699 15.6582 131.973 14.1853 130.495 13.2149C129.069 12.2782 127.019 11.86 124.447 11.86V12.56V13.26C126.91 13.26 128.636 13.6684 129.727 14.3851C130.767 15.068 131.299 16.0751 131.299 17.52H131.999ZM124.447 12.56V11.86H121.503V12.56V13.26H124.447V12.56ZM121.503 12.56H120.803V34H121.503H122.203V12.56H121.503ZM121.503 34V33.3H120.543V34V34.7H121.503V34ZM120.543 34H121.243V11.6H120.543H119.843V34H120.543ZM120.543 11.6V12.3H124.447V11.6V10.9H120.543V11.6ZM124.447 11.6V12.3C127.196 12.3 129.145 12.8135 130.402 13.733L130.815 13.168L131.228 12.603C129.627 11.4318 127.33 10.9 124.447 10.9V11.6ZM130.815 13.168L130.407 13.737C131.639 14.6195 132.259 15.8504 132.259 17.52H132.959H133.659C133.659 15.4349 132.85 13.7645 131.223 12.599L130.815 13.168ZM132.959 17.52H132.259C132.259 18.487 132.057 19.2882 131.679 19.9487C131.303 20.6078 130.73 21.1652 129.929 21.6131L130.271 22.224L130.613 22.8349C131.604 22.2802 132.375 21.5522 132.895 20.6433C133.413 19.7358 133.659 18.6863 133.659 17.52H132.959ZM130.271 22.224L129.93 21.6129L128.842 22.2209L129.183 22.832L129.524 23.4431L130.612 22.8351L130.271 22.224ZM129.183 22.832L128.525 23.0714L132.589 34.2394L133.247 34L133.905 33.7606L129.841 22.5926L129.183 22.832ZM133.247 34V33.3H123.039V34V34.7H133.247V34ZM123.039 34H123.739V33.04H123.039H122.339V34H123.039ZM151.449 11.6H152.149V10.9H151.449V11.6ZM151.449 12.56V13.26H152.149V12.56H151.449ZM143.929 12.56V11.86H143.229V12.56H143.929ZM143.929 34V34.7H144.629V34H143.929ZM142.969 34H142.269V34.7H142.969V34ZM142.969 12.56H143.669V11.86H142.969V12.56ZM135.449 12.56H134.749V13.26H135.449V12.56ZM135.449 11.6V10.9H134.749V11.6H135.449ZM151.449 11.6H150.749V12.56H151.449H152.149V11.6H151.449ZM151.449 12.56V11.86H143.929V12.56V13.26H151.449V12.56ZM143.929 12.56H143.229V34H143.929H144.629V12.56H143.929ZM143.929 34V33.3H142.969V34V34.7H143.929V34ZM142.969 34H143.669V12.56H142.969H142.269V34H142.969ZM142.969 12.56V11.86H135.449V12.56V13.26H142.969V12.56ZM135.449 12.56H136.149V11.6H135.449H134.749V12.56H135.449ZM135.449 11.6V12.3H151.449V11.6V10.9H135.449V11.6ZM178.431 29.904L179.079 30.169L179.328 29.5592L178.735 29.2733L178.431 29.904ZM175.999 33.168L175.585 32.6039L175.585 32.6039L175.999 33.168ZM165.599 31.92L165.032 32.3304L165.035 32.334L165.599 31.92ZM165.599 13.712L166.163 14.126L166.166 14.1224L165.599 13.712ZM175.999 12.432L175.585 12.9961L175.585 12.9961L175.999 12.432ZM178.431 15.696L178.735 16.3267L179.328 16.0408L179.079 15.431L178.431 15.696ZM177.567 16.112L176.916 16.37L177.193 17.0688L177.871 16.7427L177.567 16.112ZM175.487 13.264L175.063 13.8209L175.071 13.8272L175.487 13.264ZM168.607 12.656L168.834 13.3182L168.842 13.3153L168.851 13.3122L168.607 12.656ZM166.591 14L167.103 14.4776L167.103 14.4776L166.591 14ZM165.247 16.784L165.926 16.9538L165.927 16.951L165.247 16.784ZM165.247 28.848L164.567 29.015L164.568 29.0178L165.247 28.848ZM166.591 31.6L166.079 32.0776L166.079 32.0776L166.591 31.6ZM168.607 32.976L168.363 33.6322L168.372 33.6353L168.38 33.6382L168.607 32.976ZM175.487 32.368L175.903 32.9313L175.911 32.9248L175.487 32.368ZM177.567 29.488L177.871 28.8573L177.193 28.5312L176.916 29.23L177.567 29.488ZM178.431 29.904L177.783 29.639C177.247 30.9486 176.509 31.9245 175.585 32.6039L175.999 33.168L176.413 33.7321C177.579 32.8755 178.463 31.6754 179.079 30.169L178.431 29.904ZM175.999 33.168L175.585 32.6039C174.713 33.2443 173.321 33.62 171.295 33.62V34.32V35.02C173.451 35.02 175.194 34.6277 176.413 33.7321L175.999 33.168ZM171.295 34.32V33.62C168.815 33.62 167.165 32.8711 166.163 31.506L165.599 31.92L165.035 32.334C166.38 34.1689 168.527 35.02 171.295 35.02V34.32ZM165.599 31.92L166.166 31.5096C165.121 30.0659 164.539 27.7273 164.539 24.368H163.839H163.139C163.139 27.8354 163.73 30.5315 165.032 32.3304L165.599 31.92ZM163.839 24.368H164.539V21.232H163.839H163.139V24.368H163.839ZM163.839 21.232H164.539C164.539 17.8715 165.122 15.5465 166.163 14.126L165.599 13.712L165.035 13.298C163.73 15.0775 163.139 17.7658 163.139 21.232H163.839ZM165.599 13.712L166.166 14.1224C167.168 12.7373 168.819 11.98 171.295 11.98V11.28V10.58C168.523 10.58 166.376 11.4441 165.032 13.3016L165.599 13.712ZM171.295 11.28V11.98C173.321 11.98 174.713 12.3557 175.585 12.9961L175.999 12.432L176.413 11.8679C175.194 10.9723 173.451 10.58 171.295 10.58V11.28ZM175.999 12.432L175.585 12.9961C176.509 13.6755 177.247 14.6514 177.783 15.961L178.431 15.696L179.079 15.431C178.463 13.9246 177.579 12.7245 176.413 11.8679L175.999 12.432ZM178.431 15.696L178.127 15.0653L177.263 15.4813L177.567 16.112L177.871 16.7427L178.735 16.3267L178.431 15.696ZM177.567 16.112L178.218 15.854C177.688 14.5189 176.923 13.4539 175.903 12.7008L175.487 13.264L175.071 13.8272C175.843 14.3968 176.464 15.2304 176.916 16.37L177.567 16.112ZM175.487 13.264L175.911 12.7072C174.835 11.8869 173.252 11.54 171.295 11.54V12.24V12.94C173.136 12.94 174.347 13.2757 175.063 13.8208L175.487 13.264ZM171.295 12.24V11.54C170.191 11.54 169.208 11.686 168.363 11.9998L168.607 12.656L168.851 13.3122C169.499 13.0713 170.308 12.94 171.295 12.94V12.24ZM168.607 12.656L168.38 11.9938C167.513 12.291 166.746 12.8078 166.079 13.5224L166.591 14L167.103 14.4776C167.63 13.9122 168.207 13.533 168.834 13.3182L168.607 12.656ZM166.591 14L166.079 13.5224C165.373 14.2795 164.883 15.3318 164.567 16.617L165.247 16.784L165.927 16.951C166.208 15.8042 166.615 15.0005 167.103 14.4776L166.591 14ZM165.247 16.784L164.568 16.6142C164.251 17.8828 164.099 19.4268 164.099 21.232H164.799H165.499C165.499 19.4959 165.646 18.0746 165.926 16.9538L165.247 16.784ZM164.799 21.232H164.099V24.368H164.799H165.499V21.232H164.799ZM164.799 24.368H164.099C164.099 26.1737 164.251 27.727 164.567 29.015L165.247 28.848L165.927 28.681C165.646 27.537 165.499 26.1036 165.499 24.368H164.799ZM165.247 28.848L164.568 29.0178C164.884 30.2833 165.375 31.3227 166.079 32.0776L166.591 31.6L167.103 31.1224C166.613 30.5973 166.207 29.802 165.926 28.6782L165.247 28.848ZM166.591 31.6L166.079 32.0776C166.743 32.7892 167.505 33.3133 168.363 33.6322L168.607 32.976L168.851 32.3198C168.216 32.084 167.633 31.6908 167.103 31.1224L166.591 31.6ZM168.607 32.976L168.38 33.6382C169.219 33.9259 170.196 34.06 171.295 34.06V33.36V32.66C170.303 32.66 169.488 32.5381 168.834 32.3138L168.607 32.976ZM171.295 33.36V34.06C173.248 34.06 174.828 33.7248 175.903 32.9312L175.487 32.368L175.071 31.8048C174.354 32.3339 173.139 32.66 171.295 32.66V33.36ZM175.487 32.368L175.911 32.9248C176.926 32.152 177.689 31.08 178.218 29.746L177.567 29.488L176.916 29.23C176.464 30.3707 175.84 31.2187 175.063 31.8112L175.487 32.368ZM177.567 29.488L177.263 30.1187L178.127 30.5347L178.431 29.904L178.735 29.2733L177.871 28.8573L177.567 29.488ZM196.7 33.04H197.4V32.34H196.7V33.04ZM196.7 34V34.7H197.4V34H196.7ZM183.324 34H182.624V34.7H183.324V34ZM183.324 11.6V10.9H182.624V11.6H183.324ZM184.284 11.6H184.984V10.9H184.284V11.6ZM184.284 33.04H183.584V33.74H184.284V33.04ZM196.7 33.04H196V34H196.7H197.4V33.04H196.7ZM196.7 34V33.3H183.324V34V34.7H196.7V34ZM183.324 34H184.024V11.6H183.324H182.624V34H183.324ZM183.324 11.6V12.3H184.284V11.6V10.9H183.324V11.6ZM184.284 11.6H183.584V33.04H184.284H184.984V11.6H184.284ZM184.284 33.04V33.74H196.7V33.04V32.34H184.284V33.04ZM201.316 34V34.7H202.016V34H201.316ZM200.356 34H199.656V34.7H200.356V34ZM200.356 11.6V10.9H199.656V11.6H200.356ZM201.316 11.6H202.016V10.9H201.316V11.6ZM201.316 34V33.3H200.356V34V34.7H201.316V34ZM200.356 34H201.056V11.6H200.356H199.656V34H200.356ZM200.356 11.6V12.3H201.316V11.6V10.9H200.356V11.6ZM201.316 11.6H200.616V34H201.316H202.016V11.6H201.316ZM210.133 33.04V32.34H209.433V33.04H210.133ZM220.053 33.04V33.74H221.266L220.659 32.6895L220.053 33.04ZM208.597 13.232L209.203 12.8815L207.897 10.6235V13.232H208.597ZM208.597 34V34.7H209.297V34H208.597ZM207.637 34H206.937V34.7H207.637V34ZM207.637 11.6V10.9H206.937V11.6H207.637ZM208.757 11.6L209.363 11.2497L209.161 10.9H208.757V11.6ZM220.725 32.304L220.119 32.6543L221.425 34.9137V32.304H220.725ZM220.725 11.6V10.9H220.025V11.6H220.725ZM221.685 11.6H222.385V10.9H221.685V11.6ZM221.685 34V34.7H222.385V34H221.685ZM210.133 34H209.433V34.7H210.133V34ZM210.133 33.04V33.74H220.053V33.04V32.34H210.133V33.04ZM220.053 33.04L220.659 32.6895L209.203 12.8815L208.597 13.232L207.991 13.5825L219.447 33.3905L220.053 33.04ZM208.597 13.232H207.897V34H208.597H209.297V13.232H208.597ZM208.597 34V33.3H207.637V34V34.7H208.597V34ZM207.637 34H208.337V11.6H207.637H206.937V34H207.637ZM207.637 11.6V12.3H208.757V11.6V10.9H207.637V11.6ZM208.757 11.6L208.151 11.9503L220.119 32.6543L220.725 32.304L221.331 31.9537L209.363 11.2497L208.757 11.6ZM220.725 32.304H221.425V11.6H220.725H220.025V32.304H220.725ZM220.725 11.6V12.3H221.685V11.6V10.9H220.725V11.6ZM221.685 11.6H220.985V34H221.685H222.385V11.6H221.685ZM221.685 34V33.3H210.133V34V34.7H221.685V34ZM210.133 34H210.833V33.04H210.133H209.433V34H210.133ZM228.972 34V34.7H229.672V34H228.972ZM228.012 34H227.312V34.7H228.012V34ZM228.012 11.6V10.9H227.312V11.6H228.012ZM228.972 11.6H229.672V10.9H228.972V11.6ZM228.972 34V33.3H228.012V34V34.7H228.972V34ZM228.012 34H228.712V11.6H228.012H227.312V34H228.012ZM228.012 11.6V12.3H228.972V11.6V10.9H228.012V11.6ZM228.972 11.6H228.272V34H228.972H229.672V11.6H228.972ZM249.181 29.904L249.829 30.169L250.078 29.5592L249.485 29.2733L249.181 29.904ZM246.749 33.168L246.335 32.6039L246.335 32.6039L246.749 33.168ZM236.349 31.92L235.782 32.3304L235.785 32.334L236.349 31.92ZM236.349 13.712L236.913 14.126L236.916 14.1224L236.349 13.712ZM246.749 12.432L246.335 12.9961L246.335 12.9961L246.749 12.432ZM249.181 15.696L249.485 16.3267L250.078 16.0408L249.829 15.431L249.181 15.696ZM248.317 16.112L247.666 16.37L247.943 17.0688L248.621 16.7427L248.317 16.112ZM246.237 13.264L245.813 13.8209L245.821 13.8272L246.237 13.264ZM239.357 12.656L239.584 13.3182L239.592 13.3153L239.601 13.3122L239.357 12.656ZM237.341 14L237.853 14.4776L237.853 14.4776L237.341 14ZM235.997 16.784L236.676 16.9538L236.677 16.951L235.997 16.784ZM235.997 28.848L235.317 29.015L235.318 29.0178L235.997 28.848ZM237.341 31.6L236.829 32.0776L236.829 32.0776L237.341 31.6ZM239.357 32.976L239.113 33.6322L239.122 33.6353L239.13 33.6382L239.357 32.976ZM246.237 32.368L246.653 32.9313L246.661 32.9248L246.237 32.368ZM248.317 29.488L248.621 28.8573L247.943 28.5312L247.666 29.23L248.317 29.488ZM249.181 29.904L248.533 29.639C247.997 30.9486 247.259 31.9245 246.335 32.6039L246.749 33.168L247.163 33.7321C248.329 32.8755 249.213 31.6754 249.829 30.169L249.181 29.904ZM246.749 33.168L246.335 32.6039C245.463 33.2443 244.071 33.62 242.045 33.62V34.32V35.02C244.201 35.02 245.944 34.6277 247.163 33.7321L246.749 33.168ZM242.045 34.32V33.62C239.565 33.62 237.915 32.8711 236.913 31.506L236.349 31.92L235.785 32.334C237.13 34.1689 239.277 35.02 242.045 35.02V34.32ZM236.349 31.92L236.916 31.5096C235.871 30.0659 235.289 27.7273 235.289 24.368H234.589H233.889C233.889 27.8354 234.48 30.5315 235.782 32.3304L236.349 31.92ZM234.589 24.368H235.289V21.232H234.589H233.889V24.368H234.589ZM234.589 21.232H235.289C235.289 17.8715 235.872 15.5465 236.913 14.126L236.349 13.712L235.785 13.298C234.48 15.0775 233.889 17.7658 233.889 21.232H234.589ZM236.349 13.712L236.916 14.1224C237.918 12.7373 239.569 11.98 242.045 11.98V11.28V10.58C239.273 10.58 237.126 11.4441 235.782 13.3016L236.349 13.712ZM242.045 11.28V11.98C244.071 11.98 245.463 12.3557 246.335 12.9961L246.749 12.432L247.163 11.8679C245.944 10.9723 244.201 10.58 242.045 10.58V11.28ZM246.749 12.432L246.335 12.9961C247.259 13.6755 247.997 14.6514 248.533 15.961L249.181 15.696L249.829 15.431C249.213 13.9246 248.329 12.7245 247.163 11.8679L246.749 12.432ZM249.181 15.696L248.877 15.0653L248.013 15.4813L248.317 16.112L248.621 16.7427L249.485 16.3267L249.181 15.696ZM248.317 16.112L248.968 15.854C248.438 14.5189 247.673 13.4539 246.653 12.7008L246.237 13.264L245.821 13.8272C246.593 14.3968 247.214 15.2304 247.666 16.37L248.317 16.112ZM246.237 13.264L246.661 12.7072C245.585 11.8869 244.002 11.54 242.045 11.54V12.24V12.94C243.886 12.94 245.097 13.2757 245.813 13.8208L246.237 13.264ZM242.045 12.24V11.54C240.941 11.54 239.958 11.686 239.113 11.9998L239.357 12.656L239.601 13.3122C240.249 13.0713 241.058 12.94 242.045 12.94V12.24ZM239.357 12.656L239.13 11.9938C238.263 12.291 237.496 12.8078 236.829 13.5224L237.341 14L237.853 14.4776C238.38 13.9122 238.957 13.533 239.584 13.3182L239.357 12.656ZM237.341 14L236.829 13.5224C236.123 14.2795 235.633 15.3318 235.317 16.617L235.997 16.784L236.677 16.951C236.958 15.8042 237.365 15.0005 237.853 14.4776L237.341 14ZM235.997 16.784L235.318 16.6142C235.001 17.8828 234.849 19.4268 234.849 21.232H235.549H236.249C236.249 19.4959 236.396 18.0746 236.676 16.9538L235.997 16.784ZM235.549 21.232H234.849V24.368H235.549H236.249V21.232H235.549ZM235.549 24.368H234.849C234.849 26.1737 235.001 27.727 235.317 29.015L235.997 28.848L236.677 28.681C236.396 27.537 236.249 26.1036 236.249 24.368H235.549ZM235.997 28.848L235.318 29.0178C235.634 30.2833 236.125 31.3227 236.829 32.0776L237.341 31.6L237.853 31.1224C237.363 30.5973 236.957 29.802 236.676 28.6782L235.997 28.848ZM237.341 31.6L236.829 32.0776C237.493 32.7892 238.255 33.3133 239.113 33.6322L239.357 32.976L239.601 32.3198C238.966 32.084 238.383 31.6908 237.853 31.1224L237.341 31.6ZM239.357 32.976L239.13 33.6382C239.969 33.9259 240.946 34.06 242.045 34.06V33.36V32.66C241.053 32.66 240.238 32.5381 239.584 32.3138L239.357 32.976ZM242.045 33.36V34.06C243.998 34.06 245.578 33.7248 246.653 32.9312L246.237 32.368L245.821 31.8048C245.104 32.3339 243.889 32.66 242.045 32.66V33.36ZM246.237 32.368L246.661 32.9248C247.676 32.152 248.439 31.08 248.968 29.746L248.317 29.488L247.666 29.23C247.214 30.3707 246.59 31.2187 245.813 31.8112L246.237 32.368ZM248.317 29.488L248.013 30.1187L248.877 30.5347L249.181 29.904L249.485 29.2733L248.621 28.8573L248.317 29.488Z" fill="black" mask="url(#path-1-outside-1_26_3)"/>
<path d="M108.5 19L112.397 32.5H104.603L108.5 19Z" fill="#FD2F2F"/>
<circle cx="242.5" cy="16.5" r="3.5" fill="#FD2F2F"/>
<circle cx="171.5" cy="16.5" r="3.5" fill="#FD2F2F"/>
<ellipse cx="30" cy="28" rx="30" ry="28" fill="#FD2F2F"/>
<mask id="path-7-outside-2_26_3" maskUnits="userSpaceOnUse" x="19" y="10" width="22" height="32" fill="black">
<rect fill="white" x="19" y="10" width="22" height="32"/>
<path d="M22.12 18.92C22.12 16.3333 22.7733 14.4667 24.08 13.32C25.3867 12.1733 27.5067 11.6 30.44 11.6C32.4933 11.6 34.1467 12.1333 35.4 13.2C36.6533 14.2667 37.56 15.8933 38.12 18.08L34.4 20.88H32.44L36.76 17.64C36.2 15.8533 35.3867 14.6 34.32 13.88C33.28 13.16 31.9867 12.8 30.44 12.8C29.3733 12.8 28.4667 12.8667 27.72 13C27 13.1333 26.2667 13.4 25.52 13.8C24.8 14.1733 24.2533 14.7867 23.88 15.64C23.5067 16.4933 23.32 17.5867 23.32 18.92C23.32 20.0933 23.8533 21.1333 24.92 22.04C26.0133 22.9467 27.3333 23.72 28.88 24.36C30.4267 25 31.9733 25.6533 33.52 26.32C35.0933 26.9867 36.4133 27.84 37.48 28.88C38.5733 29.92 39.12 31.12 39.12 32.48C39.12 35.1467 38.4533 37.1333 37.12 38.44C35.8133 39.7467 33.56 40.4 30.36 40.4C27.7467 40.4 25.6933 39.88 24.2 38.84C22.7067 37.7733 21.68 36.1333 21.12 33.92L22.24 33.44C22.7733 35.6 23.68 37.1067 24.96 37.96C26.2667 38.7867 28.0667 39.2 30.36 39.2C32.92 39.2 34.8133 38.7067 36.04 37.72C37.2933 36.7333 37.92 34.9867 37.92 32.48C37.92 31.3067 37.3733 30.2667 36.28 29.36C35.2133 28.4533 33.8933 27.68 32.32 27.04C30.7733 26.4 29.2267 25.7467 27.68 25.08C26.1333 24.4133 24.8133 23.56 23.72 22.52C22.6533 21.48 22.12 20.28 22.12 18.92Z"/>
</mask>
<path d="M22.12 18.92C22.12 16.3333 22.7733 14.4667 24.08 13.32C25.3867 12.1733 27.5067 11.6 30.44 11.6C32.4933 11.6 34.1467 12.1333 35.4 13.2C36.6533 14.2667 37.56 15.8933 38.12 18.08L34.4 20.88H32.44L36.76 17.64C36.2 15.8533 35.3867 14.6 34.32 13.88C33.28 13.16 31.9867 12.8 30.44 12.8C29.3733 12.8 28.4667 12.8667 27.72 13C27 13.1333 26.2667 13.4 25.52 13.8C24.8 14.1733 24.2533 14.7867 23.88 15.64C23.5067 16.4933 23.32 17.5867 23.32 18.92C23.32 20.0933 23.8533 21.1333 24.92 22.04C26.0133 22.9467 27.3333 23.72 28.88 24.36C30.4267 25 31.9733 25.6533 33.52 26.32C35.0933 26.9867 36.4133 27.84 37.48 28.88C38.5733 29.92 39.12 31.12 39.12 32.48C39.12 35.1467 38.4533 37.1333 37.12 38.44C35.8133 39.7467 33.56 40.4 30.36 40.4C27.7467 40.4 25.6933 39.88 24.2 38.84C22.7067 37.7733 21.68 36.1333 21.12 33.92L22.24 33.44C22.7733 35.6 23.68 37.1067 24.96 37.96C26.2667 38.7867 28.0667 39.2 30.36 39.2C32.92 39.2 34.8133 38.7067 36.04 37.72C37.2933 36.7333 37.92 34.9867 37.92 32.48C37.92 31.3067 37.3733 30.2667 36.28 29.36C35.2133 28.4533 33.8933 27.68 32.32 27.04C30.7733 26.4 29.2267 25.7467 27.68 25.08C26.1333 24.4133 24.8133 23.56 23.72 22.52C22.6533 21.48 22.12 20.28 22.12 18.92Z" fill="black"/>
<path d="M24.08 13.32L23.2885 12.418L23.2885 12.418L24.08 13.32ZM35.4 13.2L34.6223 14.1138L34.6223 14.1138L35.4 13.2ZM38.12 18.08L38.8416 19.0388L39.481 18.5575L39.2825 17.7823L38.12 18.08ZM34.4 20.88V22.08H34.8011L35.1216 21.8388L34.4 20.88ZM32.44 20.88L31.72 19.92L28.84 22.08H32.44V20.88ZM36.76 17.64L37.48 18.6L38.1589 18.0908L37.9051 17.2811L36.76 17.64ZM34.32 13.88L33.6369 14.8666L33.6428 14.8707L33.6486 14.8746L34.32 13.88ZM27.72 13L27.509 11.8187L27.5015 11.8201L27.72 13ZM25.52 13.8L26.0724 14.8653L26.0795 14.8616L26.0867 14.8578L25.52 13.8ZM23.88 15.64L24.9794 16.121L24.9794 16.121L23.88 15.64ZM24.92 22.04L24.1428 22.9543L24.1484 22.9591L24.154 22.9637L24.92 22.04ZM28.88 24.36L29.3388 23.2512L29.3388 23.2512L28.88 24.36ZM33.52 26.32L33.045 27.422L33.0518 27.4249L33.52 26.32ZM37.48 28.88L36.6423 29.7392L36.6476 29.7444L36.6529 29.7495L37.48 28.88ZM37.12 38.44L36.28 37.5829L36.2715 37.5915L37.12 38.44ZM24.2 38.84L23.5025 39.8165L23.5083 39.8206L23.5142 39.8247L24.2 38.84ZM21.12 33.92L20.6473 32.817L19.7053 33.2208L19.9567 34.2143L21.12 33.92ZM22.24 33.44L23.405 33.1523L23.0662 31.7803L21.7673 32.337L22.24 33.44ZM24.96 37.96L24.2944 38.9585L24.3063 38.9664L24.3184 38.9741L24.96 37.96ZM36.04 37.72L35.2977 36.7771L35.2879 36.7849L36.04 37.72ZM36.28 29.36L35.5028 30.2743L35.5084 30.2791L35.514 30.2837L36.28 29.36ZM32.32 27.04L31.8612 28.1488L31.8678 28.1516L32.32 27.04ZM23.72 22.52L22.8823 23.3792L22.8876 23.3844L22.8929 23.3895L23.72 22.52ZM22.12 18.92H23.32C23.32 16.5082 23.9298 15.0483 24.8715 14.2219L24.08 13.32L23.2885 12.418C21.6168 13.885 20.92 16.1585 20.92 18.92H22.12ZM24.08 13.32L24.8715 14.2219C25.8518 13.3617 27.6131 12.8 30.44 12.8V11.6V10.4C27.4002 10.4 24.9216 10.985 23.2885 12.418L24.08 13.32ZM30.44 11.6V12.8C32.2812 12.8 33.6357 13.2742 34.6223 14.1138L35.4 13.2L36.1777 12.2862C34.6577 10.9925 32.7055 10.4 30.44 10.4V11.6ZM35.4 13.2L34.6223 14.1138C35.6282 14.97 36.4367 16.3441 36.9575 18.3777L38.12 18.08L39.2825 17.7823C38.6833 15.4426 37.6784 13.5633 36.1777 12.2862L35.4 13.2ZM38.12 18.08L37.3984 17.1212L33.6784 19.9212L34.4 20.88L35.1216 21.8388L38.8416 19.0388L38.12 18.08ZM34.4 20.88V19.68H32.44V20.88V22.08H34.4V20.88ZM32.44 20.88L33.16 21.84L37.48 18.6L36.76 17.64L36.04 16.68L31.72 19.92L32.44 20.88ZM36.76 17.64L37.9051 17.2811C37.2996 15.3494 36.3659 13.8132 34.9914 12.8854L34.32 13.88L33.6486 14.8746C34.4074 15.3868 35.1004 16.3573 35.6149 17.9989L36.76 17.64ZM34.32 13.88L35.0031 12.8934C33.7214 12.0061 32.1757 11.6 30.44 11.6V12.8V14C31.7977 14 32.8386 14.3139 33.6369 14.8666L34.32 13.88ZM30.44 12.8V11.6C29.3287 11.6 28.347 11.6691 27.5091 11.8187L27.72 13L27.9309 14.1813C28.5863 14.0643 29.418 14 30.44 14V12.8ZM27.72 13L27.5015 11.8201C26.6425 11.9791 25.7923 12.2928 24.9533 12.7422L25.52 13.8L26.0867 14.8578C26.741 14.5072 27.3575 14.2875 27.9385 14.1799L27.72 13ZM25.52 13.8L24.9676 12.7347C23.9682 13.2529 23.2468 14.0934 22.7806 15.159L23.88 15.64L24.9794 16.121C25.2598 15.48 25.6318 15.0938 26.0724 14.8653L25.52 13.8ZM23.88 15.64L22.7806 15.159C22.3188 16.2146 22.12 17.4871 22.12 18.92H23.32H24.52C24.52 17.6862 24.6946 16.772 24.9794 16.121L23.88 15.64ZM23.32 18.92H22.12C22.12 20.5139 22.865 21.8682 24.1428 22.9543L24.92 22.04L25.6972 21.1257C24.8417 20.3985 24.52 19.6727 24.52 18.92H23.32ZM24.92 22.04L24.154 22.9637C25.3547 23.9594 26.7827 24.7908 28.4212 25.4688L28.88 24.36L29.3388 23.2512C27.884 22.6492 26.672 21.9339 25.686 21.1163L24.92 22.04ZM28.88 24.36L28.4212 25.4688C29.9624 26.1066 31.5037 26.7576 33.045 27.422L33.52 26.32L33.995 25.218C32.443 24.549 30.8909 23.8934 29.3388 23.2512L28.88 24.36ZM33.52 26.32L33.0518 27.4249C34.5077 28.0418 35.6969 28.8175 36.6423 29.7392L37.48 28.88L38.3177 28.0208C37.1297 26.8625 35.6789 25.9315 33.9882 25.2151L33.52 26.32ZM37.48 28.88L36.6529 29.7495C37.537 30.5904 37.92 31.4864 37.92 32.48H39.12H40.32C40.32 30.7536 39.6097 29.2496 38.3071 28.0105L37.48 28.88ZM39.12 32.48H37.92C37.92 34.9638 37.2996 36.5839 36.2801 37.5829L37.12 38.44L37.9599 39.2971C39.6071 37.6828 40.32 35.3295 40.32 32.48H39.12ZM37.12 38.44L36.2715 37.5915C35.3069 38.5561 33.4582 39.2 30.36 39.2V40.4V41.6C33.6618 41.6 36.3198 40.9372 37.9685 39.2885L37.12 38.44ZM30.36 40.4V39.2C27.8894 39.2 26.1076 38.7062 24.8858 37.8553L24.2 38.84L23.5142 39.8247C25.2791 41.0538 27.6039 41.6 30.36 41.6V40.4ZM24.2 38.84L24.8975 37.8635C23.6875 36.9993 22.7912 35.633 22.2833 33.6257L21.12 33.92L19.9567 34.2143C20.5688 36.6336 21.7258 38.5474 23.5025 39.8165L24.2 38.84ZM21.12 33.92L21.5927 35.023L22.7127 34.543L22.24 33.44L21.7673 32.337L20.6473 32.817L21.12 33.92ZM22.24 33.44L21.075 33.7277C21.6485 36.0502 22.6733 37.8777 24.2944 38.9585L24.96 37.96L25.6256 36.9615C24.6867 36.3356 23.8982 35.1498 23.405 33.1523L22.24 33.44ZM24.96 37.96L24.3184 38.9741C25.8886 39.9675 27.9424 40.4 30.36 40.4V39.2V38C28.1909 38 26.6447 37.6059 25.6016 36.9459L24.96 37.96ZM30.36 39.2V40.4C33.0347 40.4 35.2548 39.8916 36.7921 38.6551L36.04 37.72L35.2879 36.7849C34.3719 37.5217 32.8053 38 30.36 38V39.2ZM36.04 37.72L36.7823 38.6629C38.4579 37.3438 39.12 35.1426 39.12 32.48H37.92H36.72C36.72 34.8307 36.1287 36.1229 35.2977 36.7771L36.04 37.72ZM37.92 32.48H39.12C39.12 30.8743 38.3505 29.5181 37.046 28.4363L36.28 29.36L35.514 30.2837C36.3961 31.0152 36.72 31.7391 36.72 32.48H37.92ZM36.28 29.36L37.0572 28.4457C35.8752 27.441 34.4393 26.6066 32.7722 25.9284L32.32 27.04L31.8678 28.1516C33.3474 28.7534 34.5515 29.4657 35.5028 30.2743L36.28 29.36ZM32.32 27.04L32.7788 25.9312C31.2376 25.2934 29.6963 24.6424 28.155 23.978L27.68 25.08L27.205 26.182C28.757 26.851 30.3091 27.5066 31.8612 28.1488L32.32 27.04ZM27.68 25.08L28.155 23.978C26.7235 23.361 25.5265 22.5822 24.5471 21.6505L23.72 22.52L22.8929 23.3895C24.1002 24.5378 25.5432 25.4657 27.205 26.182L27.68 25.08ZM23.72 22.52L24.5577 21.6608C23.6983 20.8229 23.32 19.9239 23.32 18.92H22.12H20.92C20.92 20.6361 21.6084 22.1371 22.8823 23.3792L23.72 22.52Z" fill="black" mask="url(#path-7-outside-2_26_3)"/>
<circle cx="30" cy="16" r="2" fill="white"/>
<path d="M87.716 51H86.636V47.004H82.244V51H81.164V42.432H82.244V46.056H86.636V42.432H87.716V51ZM92.3505 44.46C93.1345 44.46 93.7145 44.632 94.0905 44.976C94.4665 45.32 94.6545 45.868 94.6545 46.62V51H93.8865L93.6825 50.088H93.6345C93.4505 50.32 93.2585 50.516 93.0585 50.676C92.8665 50.828 92.6425 50.94 92.3865 51.012C92.1385 51.084 91.8345 51.12 91.4745 51.12C91.0905 51.12 90.7425 51.052 90.4305 50.916C90.1265 50.78 89.8865 50.572 89.7105 50.292C89.5345 50.004 89.4465 49.644 89.4465 49.212C89.4465 48.572 89.6985 48.08 90.2025 47.736C90.7065 47.384 91.4825 47.192 92.5305 47.16L93.6225 47.124V46.74C93.6225 46.204 93.5065 45.832 93.2745 45.624C93.0425 45.416 92.7145 45.312 92.2905 45.312C91.9545 45.312 91.6345 45.364 91.3305 45.468C91.0265 45.564 90.7425 45.676 90.4785 45.804L90.1545 45.012C90.4345 44.86 90.7665 44.732 91.1505 44.628C91.5345 44.516 91.9345 44.46 92.3505 44.46ZM92.6625 47.892C91.8625 47.924 91.3065 48.052 90.9945 48.276C90.6905 48.5 90.5385 48.816 90.5385 49.224C90.5385 49.584 90.6465 49.848 90.8625 50.016C91.0865 50.184 91.3705 50.268 91.7145 50.268C92.2585 50.268 92.7105 50.12 93.0705 49.824C93.4305 49.52 93.6105 49.056 93.6105 48.432V47.856L92.6625 47.892ZM99.7011 44.448C100.493 44.448 101.129 44.724 101.609 45.276C102.097 45.828 102.341 46.66 102.341 47.772C102.341 48.5 102.229 49.116 102.005 49.62C101.789 50.116 101.481 50.492 101.081 50.748C100.689 50.996 100.225 51.12 99.6891 51.12C99.3611 51.12 99.0691 51.076 98.8131 50.988C98.5571 50.9 98.3371 50.788 98.1531 50.652C97.9771 50.508 97.8251 50.352 97.6971 50.184H97.6251C97.6411 50.32 97.6571 50.492 97.6731 50.7C97.6891 50.908 97.6971 51.088 97.6971 51.24V53.88H96.6411V44.568H97.5051L97.6491 45.444H97.6971C97.8251 45.26 97.9771 45.092 98.1531 44.94C98.3371 44.788 98.5531 44.668 98.8011 44.58C99.0571 44.492 99.3571 44.448 99.7011 44.448ZM99.5091 45.336C99.0771 45.336 98.7291 45.42 98.4651 45.588C98.2011 45.748 98.0091 45.992 97.8891 46.32C97.7691 46.648 97.7051 47.064 97.6971 47.568V47.772C97.6971 48.3 97.7531 48.748 97.8651 49.116C97.9771 49.484 98.1651 49.764 98.4291 49.956C98.7011 50.148 99.0691 50.244 99.5331 50.244C99.9251 50.244 100.245 50.136 100.493 49.92C100.749 49.704 100.937 49.412 101.057 49.044C101.185 48.668 101.249 48.24 101.249 47.76C101.249 47.024 101.105 46.436 100.817 45.996C100.537 45.556 100.101 45.336 99.5091 45.336ZM107.828 44.568H108.98L106.232 47.664L109.208 51H107.984L105.08 47.736V51H104.024V44.568H105.08V47.688L107.828 44.568ZM115.733 47.772C115.733 48.308 115.661 48.784 115.517 49.2C115.381 49.608 115.181 49.956 114.917 50.244C114.661 50.532 114.345 50.752 113.969 50.904C113.601 51.048 113.189 51.12 112.733 51.12C112.309 51.12 111.917 51.048 111.557 50.904C111.197 50.752 110.885 50.532 110.621 50.244C110.357 49.956 110.149 49.608 109.997 49.2C109.853 48.784 109.781 48.308 109.781 47.772C109.781 47.06 109.901 46.46 110.141 45.972C110.381 45.476 110.725 45.1 111.173 44.844C111.621 44.58 112.153 44.448 112.769 44.448C113.353 44.448 113.865 44.58 114.305 44.844C114.753 45.1 115.101 45.476 115.349 45.972C115.605 46.46 115.733 47.06 115.733 47.772ZM110.873 47.772C110.873 48.276 110.937 48.716 111.065 49.092C111.201 49.46 111.409 49.744 111.689 49.944C111.969 50.144 112.325 50.244 112.757 50.244C113.189 50.244 113.545 50.144 113.825 49.944C114.105 49.744 114.309 49.46 114.437 49.092C114.573 48.716 114.641 48.276 114.641 47.772C114.641 47.26 114.573 46.824 114.437 46.464C114.301 46.104 114.093 45.828 113.813 45.636C113.541 45.436 113.185 45.336 112.745 45.336C112.089 45.336 111.613 45.552 111.317 45.984C111.021 46.416 110.873 47.012 110.873 47.772ZM122.303 51H121.235V45.444H119.339C119.259 46.46 119.159 47.328 119.039 48.048C118.919 48.76 118.767 49.34 118.583 49.788C118.399 50.236 118.179 50.564 117.923 50.772C117.667 50.98 117.367 51.084 117.023 51.084C116.919 51.084 116.815 51.076 116.711 51.06C116.615 51.052 116.535 51.032 116.471 51V50.208C116.519 50.224 116.571 50.236 116.627 50.244C116.683 50.252 116.739 50.256 116.795 50.256C116.971 50.256 117.131 50.184 117.275 50.04C117.419 49.896 117.547 49.676 117.659 49.38C117.779 49.084 117.887 48.712 117.983 48.264C118.079 47.808 118.163 47.272 118.235 46.656C118.307 46.04 118.371 45.344 118.427 44.568H122.303V51ZM129.936 47.772C129.936 48.308 129.864 48.784 129.72 49.2C129.584 49.608 129.384 49.956 129.12 50.244C128.864 50.532 128.548 50.752 128.172 50.904C127.804 51.048 127.392 51.12 126.936 51.12C126.512 51.12 126.12 51.048 125.76 50.904C125.4 50.752 125.088 50.532 124.824 50.244C124.56 49.956 124.352 49.608 124.2 49.2C124.056 48.784 123.984 48.308 123.984 47.772C123.984 47.06 124.104 46.46 124.344 45.972C124.584 45.476 124.928 45.1 125.376 44.844C125.824 44.58 126.356 44.448 126.972 44.448C127.556 44.448 128.068 44.58 128.508 44.844C128.956 45.1 129.304 45.476 129.552 45.972C129.808 46.46 129.936 47.06 129.936 47.772ZM125.076 47.772C125.076 48.276 125.14 48.716 125.268 49.092C125.404 49.46 125.612 49.744 125.892 49.944C126.172 50.144 126.528 50.244 126.96 50.244C127.392 50.244 127.748 50.144 128.028 49.944C128.308 49.744 128.512 49.46 128.64 49.092C128.776 48.716 128.844 48.276 128.844 47.772C128.844 47.26 128.776 46.824 128.64 46.464C128.504 46.104 128.296 45.828 128.016 45.636C127.744 45.436 127.388 45.336 126.948 45.336C126.292 45.336 125.816 45.552 125.52 45.984C125.224 46.416 125.076 47.012 125.076 47.772ZM135.534 44.568V45.456H132.666V51H131.61V44.568H135.534ZM137.797 48.492C137.797 48.564 137.793 48.668 137.785 48.804C137.785 48.932 137.781 49.072 137.773 49.224C137.765 49.368 137.757 49.508 137.749 49.644C137.741 49.772 137.733 49.876 137.725 49.956L141.169 44.568H142.465V51H141.481V47.208C141.481 47.08 141.481 46.912 141.481 46.704C141.489 46.496 141.497 46.292 141.505 46.092C141.513 45.884 141.521 45.728 141.529 45.624L138.109 51H136.801V44.568H137.797V48.492ZM145.436 46.908C145.436 47.284 145.54 47.564 145.748 47.748C145.964 47.924 146.272 48.012 146.672 48.012C147.072 48.012 147.436 47.952 147.764 47.832C148.092 47.704 148.428 47.536 148.772 47.328V44.568H149.828V51H148.772V48.132C148.412 48.364 148.056 48.548 147.704 48.684C147.36 48.812 146.944 48.876 146.456 48.876C145.8 48.876 145.288 48.704 144.92 48.36C144.56 48.016 144.38 47.556 144.38 46.98V44.568H145.436V46.908ZM154.356 44.448C154.908 44.448 155.38 44.568 155.772 44.808C156.172 45.048 156.476 45.388 156.684 45.828C156.9 46.26 157.008 46.768 157.008 47.352V47.988H152.604C152.62 48.716 152.804 49.272 153.156 49.656C153.516 50.032 154.016 50.22 154.656 50.22C155.064 50.22 155.424 50.184 155.736 50.112C156.056 50.032 156.384 49.92 156.72 49.776V50.7C156.392 50.844 156.068 50.948 155.748 51.012C155.428 51.084 155.048 51.12 154.608 51.12C154 51.12 153.46 50.996 152.988 50.748C152.524 50.5 152.16 50.132 151.896 49.644C151.64 49.148 151.512 48.544 151.512 47.832C151.512 47.128 151.628 46.524 151.86 46.02C152.1 45.516 152.432 45.128 152.856 44.856C153.288 44.584 153.788 44.448 154.356 44.448ZM154.344 45.312C153.84 45.312 153.44 45.476 153.144 45.804C152.856 46.124 152.684 46.572 152.628 47.148H155.904C155.904 46.78 155.848 46.46 155.736 46.188C155.624 45.916 155.452 45.704 155.22 45.552C154.996 45.392 154.704 45.312 154.344 45.312ZM161.225 51.12C160.657 51.12 160.149 51.004 159.701 50.772C159.261 50.54 158.913 50.18 158.657 49.692C158.409 49.204 158.285 48.58 158.285 47.82C158.285 47.028 158.417 46.384 158.681 45.888C158.945 45.392 159.301 45.028 159.749 44.796C160.205 44.564 160.721 44.448 161.297 44.448C161.625 44.448 161.941 44.484 162.245 44.556C162.549 44.62 162.797 44.7 162.989 44.796L162.665 45.672C162.473 45.6 162.249 45.532 161.993 45.468C161.737 45.404 161.497 45.372 161.273 45.372C160.841 45.372 160.485 45.464 160.205 45.648C159.925 45.832 159.717 46.104 159.581 46.464C159.445 46.824 159.377 47.272 159.377 47.808C159.377 48.32 159.445 48.756 159.581 49.116C159.717 49.476 159.921 49.748 160.193 49.932C160.465 50.116 160.805 50.208 161.213 50.208C161.565 50.208 161.873 50.172 162.137 50.1C162.409 50.028 162.657 49.94 162.881 49.836V50.772C162.665 50.884 162.425 50.968 162.161 51.024C161.905 51.088 161.593 51.12 161.225 51.12ZM168.215 44.568H169.367L166.619 47.664L169.595 51H168.371L165.467 47.736V51H164.411V44.568H165.467V47.688L168.215 44.568ZM173.198 44.46C173.982 44.46 174.562 44.632 174.938 44.976C175.314 45.32 175.502 45.868 175.502 46.62V51H174.734L174.53 50.088H174.482C174.298 50.32 174.106 50.516 173.906 50.676C173.714 50.828 173.49 50.94 173.234 51.012C172.986 51.084 172.682 51.12 172.322 51.12C171.938 51.12 171.59 51.052 171.278 50.916C170.974 50.78 170.734 50.572 170.558 50.292C170.382 50.004 170.294 49.644 170.294 49.212C170.294 48.572 170.546 48.08 171.05 47.736C171.554 47.384 172.33 47.192 173.378 47.16L174.47 47.124V46.74C174.47 46.204 174.354 45.832 174.122 45.624C173.89 45.416 173.562 45.312 173.138 45.312C172.802 45.312 172.482 45.364 172.178 45.468C171.874 45.564 171.59 45.676 171.326 45.804L171.002 45.012C171.282 44.86 171.614 44.732 171.998 44.628C172.382 44.516 172.782 44.46 173.198 44.46ZM173.51 47.892C172.71 47.924 172.154 48.052 171.842 48.276C171.538 48.5 171.386 48.816 171.386 49.224C171.386 49.584 171.494 49.848 171.71 50.016C171.934 50.184 172.218 50.268 172.562 50.268C173.106 50.268 173.558 50.12 173.918 49.824C174.278 49.52 174.458 49.056 174.458 48.432V47.856L173.51 47.892ZM177.885 51H176.661L178.497 48.3C178.249 48.236 178.009 48.136 177.777 48C177.545 47.856 177.357 47.66 177.213 47.412C177.069 47.156 176.997 46.84 176.997 46.464C176.997 45.848 177.205 45.38 177.621 45.06C178.037 44.732 178.589 44.568 179.277 44.568H182.157V51H181.101V48.444H179.541L177.885 51ZM178.017 46.476C178.017 46.844 178.153 47.12 178.425 47.304C178.705 47.48 179.093 47.568 179.589 47.568H181.101V45.444H179.385C178.897 45.444 178.545 45.54 178.329 45.732C178.121 45.924 178.017 46.172 178.017 46.476ZM191.535 44.568H192.687L189.939 47.664L192.915 51H191.691L188.787 47.736V51H187.731V44.568H188.787V47.688L191.535 44.568ZM198.979 51H197.911V45.444H196.015C195.935 46.46 195.835 47.328 195.715 48.048C195.595 48.76 195.443 49.34 195.259 49.788C195.075 50.236 194.855 50.564 194.599 50.772C194.343 50.98 194.043 51.084 193.699 51.084C193.595 51.084 193.491 51.076 193.387 51.06C193.291 51.052 193.211 51.032 193.147 51V50.208C193.195 50.224 193.247 50.236 193.303 50.244C193.359 50.252 193.415 50.256 193.471 50.256C193.647 50.256 193.807 50.184 193.951 50.04C194.095 49.896 194.223 49.676 194.335 49.38C194.455 49.084 194.563 48.712 194.659 48.264C194.755 47.808 194.839 47.272 194.911 46.656C194.983 46.04 195.047 45.344 195.103 44.568H198.979V51ZM202.016 48.492C202.016 48.564 202.012 48.668 202.004 48.804C202.004 48.932 202 49.072 201.992 49.224C201.984 49.368 201.976 49.508 201.968 49.644C201.96 49.772 201.952 49.876 201.944 49.956L205.388 44.568H206.684V51H205.7V47.208C205.7 47.08 205.7 46.912 205.7 46.704C205.708 46.496 205.716 46.292 205.724 46.092C205.732 45.884 205.74 45.728 205.748 45.624L202.328 51H201.02V44.568H202.016V48.492ZM209.787 44.568V47.244H213.279V44.568H214.335V51H213.279V48.132H209.787V51H208.731V44.568H209.787ZM217.368 48.492C217.368 48.564 217.364 48.668 217.356 48.804C217.356 48.932 217.352 49.072 217.344 49.224C217.336 49.368 217.328 49.508 217.32 49.644C217.312 49.772 217.304 49.876 217.296 49.956L220.74 44.568H222.036V51H221.052V47.208C221.052 47.08 221.052 46.912 221.052 46.704C221.06 46.496 221.068 46.292 221.076 46.092C221.084 45.884 221.092 45.728 221.1 45.624L217.68 51H216.372V44.568H217.368V48.492ZM227.887 44.568H229.039L226.291 47.664L229.267 51H228.043L225.139 47.736V51H224.083V44.568H225.139V47.688L227.887 44.568ZM232.87 44.46C233.654 44.46 234.234 44.632 234.61 44.976C234.986 45.32 235.174 45.868 235.174 46.62V51H234.406L234.202 50.088H234.154C233.97 50.32 233.778 50.516 233.578 50.676C233.386 50.828 233.162 50.94 232.906 51.012C232.658 51.084 232.354 51.12 231.994 51.12C231.61 51.12 231.262 51.052 230.95 50.916C230.646 50.78 230.406 50.572 230.23 50.292C230.054 50.004 229.966 49.644 229.966 49.212C229.966 48.572 230.218 48.08 230.722 47.736C231.226 47.384 232.002 47.192 233.05 47.16L234.142 47.124V46.74C234.142 46.204 234.026 45.832 233.794 45.624C233.562 45.416 233.234 45.312 232.81 45.312C232.474 45.312 232.154 45.364 231.85 45.468C231.546 45.564 231.262 45.676 230.998 45.804L230.674 45.012C230.954 44.86 231.286 44.732 231.67 44.628C232.054 44.516 232.454 44.46 232.87 44.46ZM233.182 47.892C232.382 47.924 231.826 48.052 231.514 48.276C231.21 48.5 231.058 48.816 231.058 49.224C231.058 49.584 231.166 49.848 231.382 50.016C231.606 50.184 231.89 50.268 232.234 50.268C232.778 50.268 233.23 50.12 233.59 49.824C233.95 49.52 234.13 49.056 234.13 48.432V47.856L233.182 47.892Z" fill="black"/>
</svg>
